<?xml version="1.0" encoding="UTF-8" standalone="no"?>
<!-- Created with Inkscape (http://www.inkscape.org/) -->

<svg
   xmlns:dc="http://purl.org/dc/elements/1.1/"
   xmlns:cc="http://creativecommons.org/ns#"
   xmlns:rdf="http://www.w3.org/1999/02/22-rdf-syntax-ns#"
   xmlns:svg="http://www.w3.org/2000/svg"
   xmlns="http://www.w3.org/2000/svg"
   xmlns:sodipodi="http://sodipodi.sourceforge.net/DTD/sodipodi-0.dtd"
   xmlns:inkscape="http://www.inkscape.org/namespaces/inkscape"
   width="340"
   height="233"
   viewBox="0 0 89.958331 61.647918"
   version="1.1"
   id="svg8"
   inkscape:version="0.92.1 r15371"
   sodipodi:docname="frame-4.svg">
  <defs
     id="defs2" />
  <sodipodi:namedview
     id="base"
     pagecolor="#ffffff"
     bordercolor="#666666"
     borderopacity="1.0"
     inkscape:pageopacity="0.0"
     inkscape:pageshadow="2"
     inkscape:zoom="2.8"
     inkscape:cx="295.7174"
     inkscape:cy="101.80568"
     inkscape:document-units="mm"
     inkscape:current-layer="layer1"
     showgrid="false"
     units="px"
     inkscape:window-width="1920"
     inkscape:window-height="1018"
     inkscape:window-x="-8"
     inkscape:window-y="-8"
     inkscape:window-maximized="1" />
  <metadata
     id="metadata5">
    <rdf:RDF>
      <cc:Work
         rdf:about="">
        <dc:format>image/svg+xml</dc:format>
        <dc:type
           rdf:resource="http://purl.org/dc/dcmitype/StillImage" />
        <dc:title></dc:title>
      </cc:Work>
    </rdf:RDF>
  </metadata>
  <g
     inkscape:label="Layer 1"
     inkscape:groupmode="layer"
     id="layer1"
     transform="translate(0,-235.35207)">
    <path
       style="fill:#000000;fill-rule:evenodd;stroke:none;stroke-width:0.57508636"
       d="m 0.04960944,235.52216 v 61.44003 H 89.908723 v -61.44003 z m 4.65148126,3.14323 h 1.8981386 c 0.655125,0 1.1680855,0.39626 1.1680855,0.88258 v 3.15871 c 0,0.48632 -0.5129605,0.88259 -1.1680855,0.88259 H 4.7010907 c -0.655125,0 -1.1889436,-0.39627 -1.1889436,-0.88259 v -3.15871 c 0,-0.48632 0.5338186,-0.88258 1.1889436,-0.88258 z m 11.2428203,0 h 1.877278 c 0.655127,0 1.188943,0.39626 1.188943,0.88258 v 3.15871 c 0,0.48632 -0.533816,0.88259 -1.188943,0.88259 h -1.877278 c -0.655128,0 -1.188944,-0.39627 -1.188944,-0.88259 v -3.15871 c 0,-0.48632 0.533816,-0.88258 1.188944,-0.88258 z m 11.221958,0 h 1.898139 c 0.655125,0 1.188943,0.39626 1.188943,0.88258 v 3.15871 c 0,0.48632 -0.533818,0.88259 -1.188943,0.88259 h -1.898139 c -0.655127,0 -1.168085,-0.39627 -1.168085,-0.88259 v -3.15871 c 0,-0.48632 0.512958,-0.88258 1.168085,-0.88258 z m 11.242818,0 h 1.898138 c 0.655128,0 1.188944,0.39626 1.188944,0.88258 v 3.15871 c 0,0.48632 -0.533816,0.88259 -1.188944,0.88259 h -1.898138 c -0.655125,0 -1.168083,-0.39627 -1.168083,-0.88259 v -3.15871 c 0,-0.48632 0.512958,-0.88258 1.168083,-0.88258 z m 11.24282,0 h 1.898138 c 0.655125,0 1.168086,0.39626 1.168086,0.88258 v 3.15871 c 0,0.48632 -0.512961,0.88259 -1.168086,0.88259 h -1.898138 c -0.655128,0 -1.188944,-0.39627 -1.188944,-0.88259 v -3.15871 c 0,-0.48632 0.533816,-0.88258 1.188944,-0.88258 z m 11.242817,0 h 1.898139 c 0.655127,0 1.168085,0.39626 1.168085,0.88258 v 3.15871 c 0,0.48632 -0.512958,0.88259 -1.168085,0.88259 h -1.898139 c -0.655125,0 -1.188944,-0.39627 -1.188944,-0.88259 v -3.15871 c 0,-0.48632 0.533819,-0.88258 1.188944,-0.88258 z m 11.24282,0 h 1.877281 c 0.655127,0 1.188943,0.39626 1.188943,0.88258 v 3.15871 c 0,0.48632 -0.533816,0.88259 -1.188943,0.88259 h -1.877281 c -0.65513,0 -1.188944,-0.39627 -1.188944,-0.88259 v -3.15871 c 0,-0.48632 0.533814,-0.88258 1.188944,-0.88258 z m 11.221959,0 h 1.898139 c 0.65513,0 1.188944,0.39626 1.188944,0.88258 v 3.15871 c 0,0.48632 -0.533814,0.88259 -1.188944,0.88259 h -1.898139 c -0.655127,0 -1.168085,-0.39627 -1.168085,-0.88259 v -3.15871 c 0,-0.48632 0.512958,-0.88258 1.168085,-0.88258 z M 2.4066385,245.16862 H 87.551694 v 42.13164 H 2.4066385 Z m 1.9189966,44.06709 h 1.8981386 c 0.655125,0 1.1889436,0.38083 1.1889436,0.86709 v 3.15871 c 0,0.48632 -0.5338186,0.88262 -1.1889436,0.88262 H 4.3256351 c -0.655125,0 -1.1680855,-0.3963 -1.1680855,-0.88262 v -3.15871 c 0,-0.48626 0.5129605,-0.86709 1.1680855,-0.86709 z m 11.2428199,0 h 1.898136 c 0.655128,0 1.188944,0.38083 1.188944,0.86709 v 3.15871 c 0,0.48638 -0.533816,0.88262 -1.188944,0.88262 h -1.898136 c -0.655127,0 -1.168085,-0.39624 -1.168085,-0.88262 v -3.15871 c 0,-0.48621 0.512958,-0.86709 1.168085,-0.86709 z m 11.242817,0 h 1.898138 c 0.655125,0 1.188944,0.38083 1.188944,0.86709 v 3.15871 c 0,0.48642 -0.533819,0.88262 -1.188944,0.88262 h -1.898138 c -0.655125,0 -1.188944,-0.3962 -1.188944,-0.88262 v -3.15871 c 0,-0.48615 0.533819,-0.86709 1.188944,-0.86709 z m 11.24282,0 h 1.898136 c 0.655127,0 1.168085,0.38083 1.168085,0.86709 v 3.15871 c 0,0.48647 -0.512958,0.88262 -1.168085,0.88262 h -1.898136 c -0.655128,0 -1.188947,-0.3962 -1.188947,-0.88262 v -3.15871 c 0,-0.48611 0.533819,-0.86709 1.188947,-0.86709 z m 11.242817,0 h 1.877281 c 0.655125,0 1.188943,0.38083 1.188943,0.86709 v 3.15871 c 0,0.48653 -0.533818,0.88262 -1.188943,0.88262 h -1.877281 c -0.655125,0 -1.188944,-0.3962 -1.188944,-0.88262 v -3.15871 c 0,-0.48606 0.533819,-0.86709 1.188944,-0.86709 z m 11.24282,0 h 1.877278 c 0.655128,0 1.188944,0.38083 1.188944,0.86709 v 3.15871 c 0,0.48653 -0.533816,0.88262 -1.188944,0.88262 h -1.877278 c -0.655127,0 -1.188944,-0.3962 -1.188944,-0.88262 v -3.15871 c 0,-0.48602 0.533817,-0.86709 1.188944,-0.86709 z m 11.221959,0 h 1.898139 c 0.655128,0 1.188944,0.38083 1.188944,0.86709 v 3.15871 c 0,0.48653 -0.533816,0.88262 -1.188944,0.88262 h -1.898139 c -0.65513,0 -1.168085,-0.3962 -1.168085,-0.88262 v -3.15871 c 0,-0.48596 0.512955,-0.86709 1.168085,-0.86709 z m 11.242818,0 h 1.898139 c 0.65513,0 1.188943,0.38083 1.188943,0.86709 v 3.15871 c 0,0.48653 -0.533813,0.88262 -1.188943,0.88262 h -1.898139 c -0.655128,0 -1.188944,-0.3962 -1.188944,-0.88262 v -3.15871 c 0,-0.48591 0.533816,-0.86709 1.188944,-0.86709 z"
       id="rect10"
       inkscape:connector-curvature="0" />
  </g>
</svg>
