<?xml version="1.0" encoding="UTF-8" standalone="no"?>
<!-- Created with Inkscape (http://www.inkscape.org/) -->

<svg
   xmlns:dc="http://purl.org/dc/elements/1.1/"
   xmlns:cc="http://creativecommons.org/ns#"
   xmlns:rdf="http://www.w3.org/1999/02/22-rdf-syntax-ns#"
   xmlns:svg="http://www.w3.org/2000/svg"
   xmlns="http://www.w3.org/2000/svg"
   xmlns:sodipodi="http://sodipodi.sourceforge.net/DTD/sodipodi-0.dtd"
   xmlns:inkscape="http://www.inkscape.org/namespaces/inkscape"
   width="340"
   height="233"
   viewBox="0 0 340 233"
   id="svg2"
   version="1.1"
   inkscape:version="0.92.1 r15371"
   sodipodi:docname="frame-1.svg">
  <defs
     id="defs4" />
  <sodipodi:namedview
     id="base"
     pagecolor="#ffffff"
     bordercolor="#666666"
     borderopacity="1.0"
     inkscape:pageopacity="0.0"
     inkscape:pageshadow="2"
     inkscape:zoom="0.5"
     inkscape:cx="404.89741"
     inkscape:cy="381.93437"
     inkscape:document-units="px"
     inkscape:current-layer="layer1"
     showgrid="false"
     units="px"
     inkscape:window-width="1920"
     inkscape:window-height="1018"
     inkscape:window-x="-8"
     inkscape:window-y="-8"
     inkscape:window-maximized="1" />
  <metadata
     id="metadata7">
    <rdf:RDF>
      <cc:Work
         rdf:about="">
        <dc:format>image/svg+xml</dc:format>
        <dc:type
           rdf:resource="http://purl.org/dc/dcmitype/StillImage" />
        <dc:title></dc:title>
      </cc:Work>
    </rdf:RDF>
  </metadata>
  <g
     inkscape:label="Layer 1"
     inkscape:groupmode="layer"
     id="layer1"
     transform="translate(0,-819.36216)">
    <path
       style="fill:#000000;stroke-width:0.49327272"
       d="m 170.02686,1049.0706 c -1.44636,-1.0357 -1.58645,-2.6768 -0.45508,-5.3311 0.55648,-1.3055 1.24796,-3.2914 1.53663,-4.4131 0.45857,-1.782 0.56013,-1.9206 0.80434,-1.0982 0.15373,0.5177 0.70815,2.1414 1.23204,3.6083 1.5677,4.3894 1.59662,6.2884 0.11195,7.3515 -0.93029,0.6662 -2.20006,0.62 -3.22988,-0.1174 z m -96.827962,-4.6094 c -1.574292,-1.4332 -0.950069,-2.2237 1.720875,-2.1794 1.263218,0.021 1.559261,0.1552 1.679226,0.762 0.136066,0.6883 -1.362822,2.2441 -2.161974,2.2441 -0.181493,0 -0.73865,-0.372 -1.238127,-0.8267 z m 192.358572,-0.1683 c -1.36073,-1.2312 -0.84407,-1.9452 1.44894,-2.0022 2.31399,-0.058 2.83725,0.7457 1.3244,2.0332 -0.62303,0.5302 -1.26314,0.9562 -1.42246,0.9467 -0.15932,-0.01 -0.76722,-0.4495 -1.35088,-0.9777 z m -104.74117,0.074 c -0.24948,-0.3338 -0.45359,-0.8034 -0.45359,-1.0434 0,-0.5996 1.66051,-1.6112 3.50213,-2.1336 0.84172,-0.2388 2.27124,-0.9135 3.17673,-1.4993 1.36547,-0.8833 1.64562,-0.9652 1.64206,-0.4795 -0.007,0.9864 -1.97362,3.6795 -3.46812,4.7496 -1.6549,1.185 -3.67756,1.3718 -4.39921,0.4062 z m 17.06371,-0.3894 c -1.5114,-1.0823 -3.48433,-3.7732 -3.49162,-4.7623 -0.003,-0.4939 0.22455,-0.4378 1.51298,0.3723 0.83448,0.5247 2.3626,1.2248 3.39581,1.5557 2.69456,0.8634 3.68056,1.7446 3.15553,2.8204 -0.64846,1.3288 -2.72773,1.3351 -4.5727,0.014 z m -123.554183,-0.2794 c 0,-0.7156 0.903705,-1.485 1.969196,-1.6765 1.411555,-0.2537 3.158527,0.3472 2.461179,0.8466 -0.352642,0.2525 -0.644108,0.189 -1.076504,-0.2345 -0.536384,-0.5252 -0.573584,-0.4862 -0.390074,0.4091 0.23933,1.1677 -0.410515,1.2952 -1.445926,0.2838 l -0.722667,-0.706 0.289187,0.706 c 0.21297,0.5199 0.108184,0.706 -0.397605,0.706 -0.377734,0 -0.686786,-0.1505 -0.686786,-0.3345 z m 10.516059,-0.1546 c -2.631134,-0.4056 -3.048371,-0.5913 -5.477111,-2.4371 -3.25391,-2.473 -3.528939,-2.6125 -5.696199,-2.8893 l -1.752679,-0.2238 1.438217,1.084 1.438202,1.084 -1.138369,1.7003 c -1.041866,1.5562 -1.12001,1.6072 -0.921762,0.6021 0.119142,-0.6039 0.353578,-1.4914 0.520977,-1.972 0.21845,-0.6271 0.08441,-1.0479 -0.474816,-1.4904 -0.937482,-0.7418 -1.589465,-0.7691 -3.294134,-0.1378 -0.711014,0.2633 -1.292739,0.3375 -1.292739,0.1649 0,-0.5583 2.53362,-1.2711 4.517864,-1.2711 1.342011,0 2.428785,0.2412 3.557241,0.7896 0.893668,0.4342 1.811289,0.707 2.039161,0.6062 0.227872,-0.1009 0.813905,-0.7442 1.30229,-1.4297 0.969078,-1.3603 2.588594,-1.9984 4.293879,-1.6919 l 1.065977,0.1915 -0.939344,0.4712 c -0.516633,0.2591 -0.939334,0.7519 -0.939334,1.0951 0,0.9112 -1.94306,2.1626 -3.375891,2.1742 l -1.224885,0.01 1.229407,0.7744 c 0.782978,0.4933 1.81717,0.7907 2.848093,0.819 l 1.618699,0.045 -1.752674,0.2248 c -1.74986,0.2242 -1.428096,0.3146 1.610674,0.452 1.659336,0.075 3.866442,0.8958 3.866442,1.4378 0,0.1685 -0.04929,0.2952 -0.109547,0.2815 -0.06025,-0.013 -1.391184,-0.2225 -2.957639,-0.4641 z m 83.394704,0.039 c -1.66301,-0.5276 -2.72172,-1.597 -3.06037,-3.0913 -0.71245,-3.1438 3.00073,-5.4136 7.05184,-4.3107 0.61817,0.1682 1.12395,0.1943 1.12395,0.058 0,-0.4678 -8.10511,-5.9241 -9.63972,-6.4893 -2.20392,-0.8116 -5.0023,-0.7448 -6.33429,0.1512 -2.02613,1.363 -1.80317,3.8774 0.37861,4.2695 1.42968,0.2569 2.22987,-0.082 1.55907,-0.6612 -0.6168,-0.5322 -0.18703,-1.5902 0.75059,-1.8479 1.08289,-0.2976 2.76968,0.6577 2.76968,1.5685 0,1.1112 -1.83576,2.3317 -3.50719,2.3317 -3.81921,0 -5.80815,-2.4029 -4.22864,-5.1087 1.18281,-2.0262 3.87994,-2.7018 7.67816,-1.9234 1.99146,0.4083 3.00505,0.9358 6.60812,3.4394 l 4.25586,2.9572 -0.19921,-1.7201 c -0.354,-3.0568 1.50181,-4.861 5.00007,-4.861 2.76838,0 4.74777,1.3087 4.74777,3.1389 0,2.0897 -2.66797,3.4099 -5.04783,2.4979 -1.04959,-0.4023 -1.19055,-2.3377 -0.19028,-2.6126 1.07422,-0.2951 1.97176,0.1288 1.97176,0.9315 0,0.9137 1.0942,1.0044 1.73726,0.1439 0.68777,-0.9202 0.55461,-1.4703 -0.58574,-2.4197 -0.82063,-0.6832 -1.3943,-0.858 -2.72624,-0.8309 -2.4521,0.05 -3.68331,1.1722 -3.68331,3.358 0,3.0103 2.81037,4.8907 7.3108,4.8917 2.75704,0 4.33514,-0.3967 5.99778,-1.5098 3.55827,-2.3824 3.22571,-7.2198 -0.47449,-6.9019 -1.49811,0.1287 -2.24922,0.9696 -1.46814,1.6435 0.53077,0.4579 0.62352,0.4577 1.09306,0 0.46891,-0.4592 0.56549,-0.4572 1.12187,0.023 0.71384,0.6159 0.14949,1.506 -1.06309,1.6768 -1.92772,0.2714 -3.23062,-2.1925 -1.86603,-3.5288 1.26817,-1.2419 5.11247,-0.4589 5.98747,1.2195 0.29425,0.5645 0.38751,0.5322 1.03038,-0.3581 2.02817,-2.8085 7.72052,-1.3106 6.15084,1.6185 -0.70214,1.3102 -3.66468,1.1687 -3.66468,-0.1751 0,-0.8405 0.92261,-1.1022 1.58801,-0.4506 0.51412,0.5036 0.60866,0.5109 0.84692,0.066 0.81518,-1.5212 -1.6065,-2.4263 -3.39341,-1.2683 -1.28242,0.831 -0.99377,4.2288 0.48565,5.7165 2.06279,2.0745 7.6418,2.9162 10.99572,1.6589 1.78636,-0.6696 3.49852,-2.8098 3.49852,-4.3731 0,-2.3623 -2.4885,-3.8567 -5.26728,-3.1631 -2.09242,0.5223 -2.98568,2.5336 -1.51375,3.4083 0.75218,0.4471 0.71993,0.4632 1.42489,-0.7122 0.5527,-0.9215 1.34812,-1.0973 2.20132,-0.4863 1.34749,0.9649 -0.0557,2.7707 -2.13771,2.7512 -2.82353,-0.027 -4.54175,-2.9482 -2.69432,-4.5814 3.65296,-3.2293 10.01659,-0.5453 9.09876,3.8375 l -0.29225,1.3955 3.64323,-2.634 c 4.82769,-3.4905 8.0905,-4.6306 11.34103,-3.9631 3.16384,0.6498 4.94426,3.0777 3.75346,5.1185 -0.34295,0.5878 -1.08261,1.2989 -1.64367,1.5803 -1.4364,0.7205 -4.12238,0.6606 -5.20681,-0.1159 -2.0487,-1.467 -0.18207,-4.2197 2.14574,-3.1642 0.42642,0.1934 0.53449,0.6203 0.35618,1.4071 -0.23126,1.0205 -0.15942,1.1296 0.74397,1.1296 1.37671,0 2.4503,-0.9478 2.4503,-2.1632 0,-1.4264 -0.70527,-2.2103 -2.46122,-2.7357 -1.87598,-0.5613 -4.4449,-0.155 -6.74033,1.0661 -1.94293,1.0336 -8.3252,5.4343 -8.3252,5.7404 0,0.1266 0.66759,0.083 1.48353,-0.096 4.34922,-0.9558 7.88833,1.6112 6.83445,4.9572 -0.46521,1.4771 -1.51509,2.2618 -3.55169,2.6545 -3.07847,0.5934 -5.64263,-0.6801 -5.64263,-2.8027 0,-1.0776 1.24895,-1.7573 2.64556,-1.4398 1.03289,0.2347 1.18233,1.653 0.20253,1.9222 -1.05281,0.2893 -0.75908,1.0244 0.4997,1.2507 2.92421,0.5255 5.37304,-1.4969 4.51305,-3.7272 -0.78851,-2.0449 -2.8997,-2.5672 -6.59927,-1.6325 -3.67428,0.9283 -9.36861,1.4639 -11.43444,1.0755 -2.62287,-0.4931 -4.83202,-1.6571 -6.02178,-3.1731 l -1.01335,-1.291 -0.54207,0.9232 c -0.7709,1.3129 -3.85541,3.0942 -6.15698,3.5556 -2.4505,0.4913 -5.64297,0.2435 -10.15322,-0.7879 -1.87174,-0.4281 -3.93441,-0.7801 -4.5837,-0.7823 -1.78239,-0.01 -3.43242,1.1846 -3.7123,2.6788 -0.32035,1.7103 1.38434,3.2787 3.56362,3.2787 1.64638,0 2.98249,-0.8077 1.8506,-1.1187 -0.94133,-0.2587 -1.2574,-1.0136 -0.72349,-1.7279 0.95452,-1.2772 3.48836,-0.3638 3.48836,1.2574 0,0.8768 -1.82092,2.5262 -2.7983,2.5348 -0.26838,0.01 -0.88232,0.071 -1.3643,0.1525 -0.48199,0.082 -1.50228,-0.05 -2.26732,-0.2929 z m 125.46839,-0.049 c 0.29586,-0.5521 2.9988,-1.4215 4.19024,-1.3478 1.97597,0.1223 2.78785,-0.1123 1.21126,-0.35 l -1.53359,-0.2311 1.56676,-0.041 c 1.05347,-0.028 1.90389,-0.2983 2.59584,-0.8257 l 1.0291,-0.7844 h -0.98152 c -1.65866,0 -2.62203,-0.5812 -3.18207,-1.9198 -0.31948,-0.7635 -0.89139,-1.376 -1.4143,-1.5145 -0.80844,-0.2141 -0.78697,-0.2488 0.27144,-0.4391 1.573,-0.2827 3.20473,0.2209 4.11751,1.2709 1.71489,1.9725 1.87905,2.0348 3.36564,1.2768 0.87038,-0.4438 2.2002,-0.7268 3.80678,-0.81 2.19194,-0.1136 2.61325,-0.034 3.75309,0.7068 l 1.28398,0.8348 -1.47523,-0.5144 c -0.81138,-0.2828 -1.83709,-0.4466 -2.27937,-0.3638 -0.44229,0.083 -0.87684,-0.01 -0.96567,-0.1964 -0.11619,-0.2496 -0.66664,-0.2386 -1.96148,0.039 -1.28538,0.2758 -2.52918,0.9538 -4.35072,2.3715 -2.99407,2.3303 -3.61341,2.5986 -6.83393,2.9602 -1.88742,0.212 -2.37818,0.1849 -2.21376,-0.1219 z m 9.89588,-0.2547 c -0.84232,-0.6363 -0.89229,-0.7962 -0.34966,-1.1186 0.64774,-0.385 2.17693,-0.2031 3.19461,0.3799 0.67981,0.3894 0.72299,1.492 0.0584,1.492 -0.28296,0 -0.38672,-0.2809 -0.24607,-0.666 l 0.2432,-0.6659 -0.86643,0.6659 c -0.47653,0.3663 -0.90803,0.6635 -0.95889,0.6605 -0.0509,-0.01 -0.5347,-0.3394 -1.0752,-0.7478 z m -174.94208,-0.048 c -4.80452,-0.7383 -9.046131,-1.9645 -18.444776,-5.3322 -11.462334,-4.1073 -12.679352,-4.3677 -19.233432,-4.1136 -8.398199,0.3255 -17.940167,1.7613 -28.492388,4.2873 -2.918621,0.6985 -6.083217,1.2533 -7.150393,1.2533 -2.332758,0 -4.584675,-0.9862 -5.619279,-2.4609 -0.653867,-0.9319 -0.755544,-0.9722 -1.0093,-0.3997 -0.443349,1.0003 -2.780901,2.233 -4.234241,2.233 -3.089533,0 -5.64082,-1.9919 -5.64082,-4.4042 0,-0.7509 0.877788,-3.2728 1.978963,-5.6855 4.566785,-10.006 6.833586,-20.225 5.500733,-24.7981 -0.319622,-1.0966 -2.423503,-4.4909 -5.451815,-8.79561 -6.82314,-9.69904 -8.501806,-13.8025 -8.049724,-19.67745 0.356353,-4.6309 2.816847,-9.26319 5.818251,-10.95377 3.238722,-1.82426 6.919546,-0.85171 9.325282,2.46392 1.431336,1.9727 1.473414,2.13428 1.306971,5.01909 -0.142186,2.46439 -0.377215,3.27055 -1.356799,4.65378 -0.651654,0.92018 -1.184822,1.72109 -1.184822,1.77982 0,0.22061 3.274278,0.86822 6.292194,1.24452 l 3.128439,0.39006 -2.475117,0.23392 c -2.243745,0.21201 -4.232567,0.0401 -7.282042,-0.62967 -0.917106,-0.2014 -0.854457,-0.0398 0.811996,2.0946 0.99318,1.27208 2.418399,2.87765 3.16716,3.56793 1.422081,1.311 0.775769,1.09269 -1.809318,-0.61118 -1.73861,-1.14592 -2.920912,-2.45768 -3.771981,-4.18501 -0.621316,-1.26102 -0.611251,-1.29192 0.861098,-2.64519 2.997329,-2.7549 3.68784,-6.30731 1.785963,-9.18811 -2.668804,-4.04246 -7.089958,-4.55596 -10.062015,-1.16867 -2.899385,3.30447 -4.289716,8.51264 -3.421003,12.81509 0.819901,4.06067 1.967654,6.2311 7.134617,13.49172 6.480689,9.10661 6.681638,9.57561 6.370616,14.86671 -0.373376,6.3519 -2.289147,13.0489 -5.968837,20.8652 -0.97486,2.0708 -1.772472,4.1604 -1.772472,4.6437 0,1.0204 0.876237,2.3515 2.036442,3.0937 2.349422,1.5028 6.288767,0.2371 6.288767,-2.0206 0,-1.1212 -1.449634,-2.4221 -2.698884,-2.4221 -1.699277,0 -2.766323,2.0497 -1.468545,2.8209 0.358833,0.2133 0.549696,0.5068 0.424138,0.6523 -0.399013,0.4623 -1.416551,-0.036 -1.947309,-0.9535 -0.41701,-0.7209 -0.382093,-1.0675 0.18694,-1.8555 1.312846,-1.8179 4.691913,-1.6613 6.050692,0.2804 0.421361,0.6021 0.766418,0.9292 0.766795,0.7267 3.73e-4,-0.2024 0.607377,-0.8025 1.34889,-1.3335 1.106036,-0.7919 1.7024,-0.9654 3.319976,-0.9654 1.595088,0 2.216436,0.1752 3.25256,0.9172 1.447732,1.0367 1.596994,1.7576 0.579334,2.798 -1.350292,1.3804 -4.580594,1.5017 -5.279171,0.1981 -0.400048,-0.7466 0.183812,-0.9381 1.083053,-0.3554 1.626794,1.0543 3.58308,0.4577 3.58308,-1.0927 0,-1.0305 -1.404883,-1.8376 -3.198386,-1.8376 -1.500469,0 -3.812318,1.5169 -3.812318,2.5015 0,1.7542 2.687947,3.4599 5.45199,3.4599 0.636321,0 3.169813,-0.5022 5.629978,-1.116 10.282281,-2.5655 20.821075,-4.1499 29.491802,-4.4338 7.434997,-0.2434 8.766451,0.046 21.646215,4.7053 11.776812,4.2602 15.120092,5.0317 21.908442,5.056 14.5629,0.052 22.98024,-5.9912 13.41858,-9.6338 -1.45134,-0.5529 -2.54034,-0.6887 -5.53153,-0.6896 -3.94005,0 -5.16048,0.2903 -8.32148,1.9869 -0.84141,0.4516 -1.92318,0.7735 -2.40391,0.7151 -1.78747,-0.2168 -4.96705,-1.6139 -6.94843,-3.053 -2.17323,-1.5786 -2.87209,-2.6793 -0.83883,-1.3213 1.16639,0.7791 8.04396,3.776 8.27906,3.6077 0.0639,-0.046 -0.16201,-0.6427 -0.50206,-1.3263 -0.70988,-1.4273 -0.84828,-5.0949 -0.21858,-5.7926 0.31479,-0.3489 0.42649,-0.1574 0.43146,0.7395 0.01,1.7694 1.38352,5.59 1.94494,5.4093 4.49678,-1.4475 6.3146,-1.8174 8.96793,-1.8248 1.59289,0 3.70437,0.15 4.6922,0.3433 3.86708,0.7568 6.74825,2.9364 6.74825,5.1048 0,4.4493 -14.06196,7.8003 -25.41379,6.0561 z m 112.39032,0.043 c -4.93421,-0.8172 -7.77783,-1.7645 -9.96834,-3.3209 -1.79103,-1.2725 -2.0813,-1.6535 -2.0813,-2.7322 0,-1.6368 1.4027,-3.107 4.10698,-4.3042 1.86264,-0.8246 2.60683,-0.9533 6.1578,-1.0645 4.06526,-0.1273 4.86921,0.01 10.15561,1.7029 0.62231,0.1996 1.92623,-3.0887 1.92623,-4.8577 0,-0.8077 0.17234,-1.2551 0.43816,-1.1375 0.67249,0.2976 0.5264,4.7323 -0.19673,5.9716 -0.34919,0.5984 -0.52108,1.0881 -0.38196,1.0881 0.44935,0 5.11816,-1.9492 7.28518,-3.0416 1.47986,-0.746 1.97505,-0.8866 1.66612,-0.4732 -0.66326,0.8874 -3.73845,2.7831 -5.61431,3.4609 -3.07663,1.1118 -3.42006,1.1083 -5.54855,-0.055 -3.045,-1.6644 -5.43424,-2.1993 -9.00609,-2.0163 -4.8962,0.2509 -8.79141,2.3335 -8.79596,4.7029 -0.002,1.0488 2.16822,2.8896 4.34387,3.6845 3.7924,1.3854 7.96277,2.0364 12.96216,2.0234 7.30186,-0.019 12.08707,-1.1391 23.66112,-5.5386 10.58498,-4.0236 11.20118,-4.1608 18.62218,-4.1471 3.4944,0.01 7.83227,0.1935 9.63972,0.4157 5.58025,0.6861 15.44358,2.4958 20.76638,3.81 2.79191,0.6894 5.67962,1.2534 6.41715,1.2534 2.73344,0 5.24097,-1.6554 5.24097,-3.46 0,-0.9845 -2.31185,-2.5015 -3.81232,-2.5015 -2.56111,0 -4.25118,1.9445 -2.67258,3.0749 0.78814,0.5643 2.87147,0.459 3.36308,-0.17 0.50512,-0.6463 1.15662,-0.3272 0.77725,0.3808 -0.69858,1.3036 -3.92887,1.1824 -5.27917,-0.1981 -1.01766,-1.0404 -0.8684,-1.7613 0.57933,-2.798 1.80692,-1.2939 4.62556,-1.3007 6.54623,-0.016 l 1.34718,0.9012 0.67646,-0.7393 c 2.09426,-2.2888 7.37212,-0.4299 5.91781,2.0842 -0.53075,0.9176 -1.54829,1.4159 -1.9473,0.9535 -0.12556,-0.1454 0.0653,-0.439 0.42413,-0.6523 1.35763,-0.8068 0.21089,-2.8209 -1.60608,-2.8209 -1.12769,0 -2.56135,1.3804 -2.56135,2.4661 0,2.2147 3.96722,3.4616 6.28877,1.9766 1.16397,-0.7446 2.03747,-2.0758 2.02999,-3.0937 -0.003,-0.4831 -0.79938,-2.5659 -1.76852,-4.6284 -3.67263,-7.8161 -5.59356,-14.5388 -5.96633,-20.8804 -0.31104,-5.2915 -0.10983,-5.761 6.37163,-14.8668 5.02656,-7.06182 6.32701,-9.53644 7.15866,-13.62237 0.84551,-4.15401 -0.58662,-9.42549 -3.44607,-12.68444 -2.97205,-3.38729 -7.3932,-2.87379 -10.06201,1.16868 -1.90188,2.8808 -1.21137,6.4332 1.78596,9.1881 1.47235,1.35327 1.48241,1.38417 0.8611,2.64519 -0.85106,1.72733 -2.03337,3.03909 -3.77198,4.18501 -2.58509,1.70387 -3.2314,1.92218 -1.80932,0.61118 0.74877,-0.69027 2.17398,-2.29584 3.16716,-3.56793 1.66645,-2.13441 1.7291,-2.296 0.812,-2.09459 -3.04947,0.66973 -5.0383,0.84167 -7.28205,0.62966 l -2.47511,-0.23391 3.12844,-0.39007 c 3.55646,-0.44345 6.29218,-1.0336 6.29218,-1.35737 0,-0.12078 -0.27171,-0.4981 -0.60382,-0.83851 -1.22061,-1.25107 -2.07387,-3.74734 -2.07387,-6.06729 0,-1.98612 0.20693,-2.64398 1.35852,-4.31904 0.78223,-1.13781 1.95424,-2.2801 2.76289,-2.69285 1.83205,-0.93511 4.60588,-0.96162 6.30166,-0.0602 3.26503,1.73552 5.78318,6.28428 6.16065,11.12848 0.45738,5.86986 -1.22101,9.97398 -8.04686,19.67688 -3.02831,4.30471 -5.13218,7.69899 -5.45182,8.79559 -1.33285,4.5731 0.93395,14.7922 5.50074,24.7981 2.21588,4.8551 2.43246,6.5095 1.06032,8.0993 -1.91352,2.2172 -5.28879,2.6285 -7.65637,0.9331 l -1.47667,-1.0574 -0.69416,0.7586 c -1.06414,1.163 -3.27304,1.9812 -5.35181,1.9825 -1.02862,0 -4.4495,-0.6158 -7.66796,-1.3821 -13.68031,-3.2565 -28.91087,-5.0029 -34.79169,-3.9891 -1.171,0.2018 -6.95991,2.054 -12.86423,4.1162 -12.89159,4.5024 -16.51065,5.3465 -23.66113,5.5185 -3.31791,0.08 -5.93687,-0.028 -7.66795,-0.3143 z m 66.84703,-1.3594 c -0.32336,-0.6471 -0.74938,-1.2521 -0.94669,-1.3442 -0.19733,-0.092 0.13664,-0.5863 0.74216,-1.0982 0.75445,-0.6377 0.9575,-0.7172 0.64518,-0.2528 -0.3348,0.4981 -0.28282,1.029 0.19592,2.0006 0.74055,1.503 0.79988,1.8712 0.30152,1.8712 -0.19258,0 -0.61472,-0.5295 -0.93809,-1.1766 z m -218.610186,-0.1878 c -0.882656,-0.6728 -0.93393,-0.8468 -0.423727,-1.4378 0.622291,-0.721 2.159537,-1.138 3.170634,-0.8601 0.419437,0.1152 0.59716,0.6089 0.54869,1.5241 -0.0635,1.1989 -0.198629,1.3644 -1.181567,1.4465 -0.727766,0.061 -1.455571,-0.1708 -2.11403,-0.6727 z m 7.509058,0.3447 c -0.496277,-0.4603 -0.48736,-1.792 0.01575,-2.3533 0.560243,-0.625 1.814752,-0.4569 2.928866,0.3922 l 1.029085,0.7845 -1.029095,0.7843 c -1.120643,0.8543 -2.279972,1.0087 -2.944629,0.3923 z m 185.022918,-0.3532 -1.2954,-0.7421 1.2954,-0.8152 c 2.08105,-1.3096 3.4265,-1.0213 3.4265,0.7339 0,1.7254 -1.30494,2.039 -3.4265,0.8234 z m 7.38281,0.3772 c -0.51882,-0.6011 -0.43218,-2.1709 0.13855,-2.5101 0.70336,-0.418 3.19467,-0.01 3.19467,0.5239 0,0.2307 0.2464,0.4783 0.54756,0.5503 0.71559,0.1707 -1.81669,1.7807 -2.82209,1.7942 -0.40751,0.01 -0.88392,-0.1558 -1.05869,-0.3583 z m -184.847179,-0.2441 c -0.378145,-0.4382 0.103691,-0.9565 0.889052,-0.9565 0.804512,0 0.810873,0.4439 0.01318,0.918 -0.422646,0.2512 -0.708093,0.2633 -0.902199,0.038 z m 171.529979,-0.4859 c 0,-0.2588 0.29576,-0.4706 0.65726,-0.4706 0.36148,0 0.65724,0.2118 0.65724,0.4706 0,0.2588 -0.29576,0.4707 -0.65724,0.4707 -0.3615,0 -0.65726,-0.2119 -0.65726,-0.4707 z m -182.059186,-0.1569 c -0.366761,-0.425 0.128139,-0.9412 0.9022,-0.9412 0.347267,0 0.631396,0.2823 0.631396,0.6275 0,0.6495 -1.057085,0.8658 -1.533596,0.3137 z m 8.120065,-0.06 c -0.0077,-0.2919 0.199213,-0.6249 0.459742,-0.7402 0.265913,-0.1177 0.356169,-0.5731 0.205767,-1.0382 -0.200779,-0.6211 -0.156461,-0.7107 0.176871,-0.358 0.625655,0.662 0.563874,1.3488 -0.185134,2.0579 -0.562754,0.5328 -0.645059,0.5426 -0.657246,0.079 z m 176.732701,-0.4057 c -0.26594,-0.4035 -0.33459,-0.9062 -0.15258,-1.1171 0.20977,-0.243 0.44384,-0.015 0.63934,0.6221 0.38103,1.2423 0.15632,1.4708 -0.48676,0.495 z m 7.49479,0.4556 c -0.17017,-0.1971 -0.10322,-0.506 0.14877,-0.6865 0.58886,-0.4217 1.96174,-0.054 1.72217,0.4614 -0.24388,0.5245 -1.4838,0.6737 -1.87094,0.2251 z m -200.518086,-0.4606 c 0.232162,-0.3452 0.982448,-0.9806 1.667307,-1.4119 l 1.245201,-0.7845 -1.017928,0.8291 c -0.63584,0.5178 -0.837307,0.8917 -0.536756,0.9962 0.274662,0.095 0.241401,0.1317 -0.0775,0.085 -0.307264,-0.045 -0.81601,0.1417 -1.130551,0.4157 -0.496505,0.4325 -0.516242,0.4155 -0.149773,-0.1293 z m 210.056866,0.2628 c -0.30125,-0.087 -0.54772,-0.3118 -0.54772,-0.4996 0,-0.1877 -0.34505,-0.6239 -0.7668,-0.9691 -0.42173,-0.3452 -0.5295,-0.5286 -0.23948,-0.4074 0.48047,0.2008 2.56591,2.1169 2.24108,2.0591 -0.0767,-0.014 -0.38584,-0.096 -0.68708,-0.183 z m -158.75636,-0.7732 c -0.37449,-0.5011 -0.37098,-0.8678 0.0141,-1.4731 0.44028,-0.6919 0.38889,-0.8748 -0.36346,-1.2938 -0.63906,-0.3558 -0.81112,-0.7214 -0.63569,-1.3508 0.27468,-0.9852 1.01472,-1.1703 1.01472,-0.2537 0,0.3349 0.18856,0.6923 0.41903,0.7944 0.23047,0.102 0.30796,0.3926 0.17221,0.646 -0.13576,0.2533 -0.0778,0.4584 0.12867,0.4558 0.82109,-0.01 1.35166,-0.5029 1.30303,-1.2091 -0.0784,-1.1383 1.0693,-1.4943 3.1964,-0.9916 1.7896,0.423 2.17921,0.7417 1.35319,1.1074 -0.241,0.1066 -0.43817,0.6021 -0.43817,1.101 0,1.4875 -2.69043,1.9689 -3.30128,0.5908 -0.30821,-0.6954 -0.5879,-0.7223 -1.62812,-0.1569 -0.83423,0.4535 -1.03122,1.1321 -0.32863,1.1321 0.24099,0 0.43817,-0.1648 0.43817,-0.3662 0,-0.2013 0.14756,-0.2603 0.32793,-0.1311 0.18037,0.1291 -0.0661,0.4512 -0.54771,0.7158 -0.60478,0.3322 -0.70622,0.5264 -0.32793,0.628 0.64368,0.1728 0.73875,0.7223 0.12495,0.7223 -0.23251,0 -0.64715,-0.3002 -0.92142,-0.6673 z m 108.55251,0.4602 c -0.15482,-0.1109 0.008,-0.3567 0.3621,-0.5463 0.70052,-0.3753 0.42153,-1.8834 -0.29015,-1.5684 -0.24171,0.1069 -0.19931,0.3627 0.10348,0.624 0.33794,0.2915 0.35402,0.4427 0.0472,0.4427 -0.76318,0 -1.06791,-0.6235 -0.53111,-1.0866 0.38684,-0.3338 0.32091,-0.5118 -0.2909,-0.7856 -0.71684,-0.3209 -0.70392,-0.3373 0.13773,-0.174 0.76993,0.1492 0.9861,0.01 1.26358,-0.8479 0.18412,-0.5654 0.30839,-1.1338 0.27614,-1.2632 -0.13923,-0.5591 0.88174,-0.1711 1.23857,0.4706 0.3154,0.5671 0.17188,0.8489 -0.72978,1.4328 -0.83627,0.5416 -0.99581,0.8176 -0.62582,1.0825 0.27312,0.1956 0.49658,0.6631 0.49658,1.0388 0,0.724 -0.98317,1.5203 -1.45755,1.1806 z m -152.753827,-1.47 c -0.756246,-0.5416 -0.530901,-1.3051 0.612164,-2.074 l 1.074399,-0.7228 1.244616,0.75 c 0.961003,0.579 1.186011,0.9279 0.987427,1.5309 -0.213124,0.6472 -0.531182,0.7867 -1.856766,0.8139 -0.879773,0.019 -1.807599,-0.116 -2.06184,-0.298 z m 192.348597,-0.01 c -0.72439,-0.5187 -0.53685,-1.054 0.6727,-1.9202 l 1.12739,-0.8073 1.2116,0.7301 c 1.1039,0.6651 1.40806,1.549 0.70603,2.0518 -0.46344,0.3318 -3.23495,0.2912 -3.71772,-0.054 z m -43.78543,-0.1722 c -0.3351,-0.152 -0.7328,-0.8205 -0.88377,-1.4856 -0.25306,-1.1148 -1.21761,-1.6081 -1.07154,-0.548 0.074,0.5369 -0.79868,0.4283 -1.05942,-0.1318 -0.18572,-0.3989 3.38072,-1.6277 4.72445,-1.6277 0.44479,0 1.12669,0.2278 1.51532,0.506 0.63931,0.4578 0.6423,0.5763 0.0313,1.244 -0.37143,0.406 -0.67532,0.9498 -0.67532,1.2087 0,0.2589 -0.38139,0.6168 -0.84753,0.7954 -1.01122,0.3875 -0.96689,0.3865 -1.7335,0.039 z m -139.166618,-1.1544 c -0.845526,-0.4622 -1.646758,-0.4591 -3.505348,0.013 -0.86391,0.2197 -0.864276,0.2158 -0.02576,-0.2734 1.160275,-0.677 3.26137,-0.6201 4.845655,0.1312 1.086852,0.5155 1.162737,0.6221 0.438167,0.6155 -0.481985,-0.01 -1.270689,-0.2235 -1.752669,-0.4869 z m 176.143908,-0.1286 c 1.57844,-0.7486 3.62052,-0.7929 4.81986,-0.1047 0.87634,0.5029 0.87634,0.5029 0,0.2682 -1.90109,-0.5091 -2.35607,-0.5133 -3.6515,-0.034 -1.90711,0.7061 -2.73685,0.614 -1.16836,-0.1299 z m -133.8606,-0.9412 c 0,-0.5858 0.11684,-0.6695 0.52579,-0.3765 0.40896,0.2928 0.40896,0.4601 0,0.753 -0.40895,0.2928 -0.52579,0.2091 -0.52579,-0.3765 z m 111.73307,0.4168 c -2.19471,-0.2509 -4.90273,-1.1105 -4.47129,-1.4195 0.27182,-0.1946 1.92634,-0.07 4.63032,0.3499 2.31405,0.359 4.85163,0.6694 5.63906,0.6899 l 1.43169,0.037 -1.3145,0.2395 c -1.41466,0.2578 -4.14561,0.3054 -5.91528,0.1031 z m -134.51786,-0.4226 c 7.04726,-1.1704 10.07789,-1.4554 10.07789,-0.9477 0,0.5772 -4.51476,1.2674 -8.07611,1.2348 -2.84373,-0.026 -3.23535,-0.082 -2.00178,-0.2871 z m -82.142242,-12.5036 c 0.395049,-0.581 0.623637,-1.3155 0.507978,-1.6322 -0.115659,-0.3167 0.0078,-0.6279 0.274264,-0.6915 0.348576,-0.083 0.333218,-0.4774 -0.05473,-1.4046 -0.385106,-0.9204 -1.33188,-1.8111 -3.311733,-3.1154 -3.254281,-2.144 -3.628933,-2.5875 -4.133962,-4.8937 -0.295973,-1.3515 -0.25823,-1.7029 0.170255,-1.5852 0.770994,0.2118 1.985085,2.1474 1.882155,3.0005 -0.17071,1.415 0.156886,1.9964 0.488742,0.8674 l 0.322808,-1.0982 0.05768,1.122 c 0.03878,0.7543 0.416554,1.3633 1.153102,1.8588 l 1.095423,0.7369 v -0.8269 c 0,-0.9936 1.39509,-2.0003 3.15578,-2.2772 0.735511,-0.1156 1.430069,-0.4835 1.624796,-0.8604 0.323483,-0.6262 0.354211,-0.6181 0.62858,0.1647 0.394799,1.1263 -0.308502,2.2948 -1.774702,2.9484 -2.754651,1.228 -2.841623,1.3456 -1.783081,2.4101 0.619772,0.6232 1.014895,1.5755 1.131107,2.7259 0.158551,1.5696 0.04775,1.8714 -0.987063,2.6875 l -1.165665,0.9195 z m 302.968372,0.037 c -1.25123,-1.1354 -1.06986,-3.8849 0.35048,-5.3132 1.05854,-1.0645 0.97157,-1.1821 -1.78308,-2.4101 -1.46621,-0.6536 -2.1695,-1.8221 -1.7747,-2.9484 0.27437,-0.7828 0.30509,-0.7909 0.62857,-0.1647 0.19473,0.3769 0.88929,0.7447 1.6248,0.8604 1.76069,0.2769 3.15578,1.2836 3.15578,2.2772 v 0.8269 l 1.09542,-0.7369 c 0.73655,-0.4955 1.11432,-1.1045 1.1531,-1.8588 l 0.0577,-1.122 0.32281,1.0982 c 0.33186,1.129 0.65946,0.5476 0.48875,-0.8674 -0.10293,-0.8531 1.11116,-2.7887 1.88215,-3.0005 0.42849,-0.1177 0.46623,0.2337 0.17025,1.5852 -0.50502,2.3062 -0.87968,2.7497 -4.13395,4.8937 -1.97986,1.3043 -2.92662,2.195 -3.31174,3.1154 -0.38795,0.9272 -0.4033,1.3214 -0.0547,1.4046 0.26651,0.064 0.38992,0.3748 0.27427,0.6915 -0.11566,0.3167 0.10751,1.0159 0.49593,1.5538 0.87254,1.2082 0.61406,1.2546 -0.64179,0.1151 z m -308.898076,-2.5209 c 0,-0.1354 0.918599,-0.4899 2.041337,-0.7879 1.846969,-0.4902 2.139009,-0.4959 3.067182,-0.06 1.231176,0.5776 1.371157,0.935 0.188759,0.4819 -0.601807,-0.2306 -1.356238,-0.1897 -2.684105,0.1458 -2.092528,0.5287 -2.613173,0.5726 -2.613173,0.2206 z m 312.699546,-0.241 c -1.20183,-0.3156 -1.92604,-0.3512 -2.51947,-0.1238 -1.17909,0.4519 -1.03586,0.093 0.19302,-0.4835 0.92817,-0.4355 1.22021,-0.4298 3.06718,0.06 1.12274,0.298 2.04134,0.6525 2.04134,0.7879 0,0.345 -0.82165,0.2738 -2.78207,-0.241 z m -314.014053,-1.4321 c 0,-0.2026 0.392152,-0.2769 0.929987,-0.1762 l 0.929988,0.1741 -0.945573,-0.6308 -0.945573,-0.6308 0.994003,-0.7395 c 1.690815,-1.258 2.897865,0.1476 1.422253,1.6562 -0.705163,0.7209 -2.385085,0.9653 -2.385085,0.347 z m 315.725543,-0.347 c -1.47562,-1.5086 -0.26856,-2.9142 1.42225,-1.6562 l 0.994,0.7395 -0.94557,0.6308 -0.94557,0.6308 0.92998,-0.1741 c 0.53784,-0.1007 0.93,-0.026 0.93,0.1762 0,0.6183 -1.67993,0.3739 -2.38509,-0.347 z m -311.51289,-7.2839 c 0.144538,-0.2697 0.472643,-0.4904 0.729125,-0.4904 0.256483,0 0.860805,-0.247 1.342944,-0.549 0.48214,-0.302 0.738175,-0.3792 0.568962,-0.1715 -0.169207,0.2076 -0.891791,0.6754 -1.605739,1.0394 -0.982594,0.5011 -1.234217,0.5427 -1.035292,0.1715 z m 308.38021,-0.4119 c -0.72714,-0.4746 -0.99992,-0.6864 -0.6062,-0.4707 0.39372,0.2158 0.92571,0.3922 1.18219,0.3922 0.25648,0 0.57982,0.2118 0.71854,0.4707 0.34167,0.6376 0.23276,0.6046 -1.29453,-0.3922 z M 15.438342,1009.844 c -1.08846,-0.9882 -1.257826,-1.7366 -0.471746,-2.0845 0.839488,-0.3715 3.031743,-0.3095 3.505404,0.099 0.598898,0.5167 0.0044,2.2877 -0.768084,2.2877 -0.342341,0 -0.622441,0.1412 -0.622441,0.3137 0,0.5439 -0.622734,0.3104 -1.643133,-0.6161 z m 310.114048,0.6161 c 0,-0.1725 -0.2801,-0.3137 -0.62244,-0.3137 -0.77239,0 -1.36698,-1.771 -0.76809,-2.2877 0.47366,-0.4087 2.66592,-0.4707 3.50541,-0.099 0.80854,0.3578 0.58059,1.2121 -0.57412,2.1515 -1.12254,0.9133 -1.54076,1.0623 -1.54076,0.5491 z M 11.85918,1007.139 c -0.74263,-0.4475 -1.350239,-0.9157 -1.350239,-1.0405 0,-0.1247 0.592339,-0.5404 1.316312,-0.9237 1.799371,-0.9527 2.947541,-0.5278 2.87044,1.0621 -0.07827,1.6141 -1.110232,1.9422 -2.836513,0.9021 z m 7.406686,0.4944 c -0.341299,-0.1511 -0.645541,-0.7902 -0.676099,-1.4202 -0.04356,-0.898 0.152894,-1.2136 0.908753,-1.4603 0.794308,-0.2591 1.170472,-0.1669 2.133781,0.5229 l 1.169473,0.8374 -1.020565,0.84 c -1.150991,0.9473 -1.623267,1.075 -2.515343,0.6802 z m 301.566994,-0.6449 -0.99508,-0.8794 1.16663,-0.8354 c 0.9607,-0.6879 1.33684,-0.7798 2.13094,-0.5208 0.74798,0.2441 0.95221,0.5639 0.91043,1.4256 -0.0607,1.2514 -0.22046,1.4331 -1.39174,1.5833 -0.49877,0.064 -1.22038,-0.2424 -1.82118,-0.7733 z m 7.78092,0.6452 c -0.34167,-0.1512 -0.64591,-0.7843 -0.67611,-1.407 -0.0766,-1.5793 1.0766,-2.0019 2.87094,-1.0519 1.57704,0.8349 1.59301,0.9186 0.33043,1.7325 -1.42384,0.9179 -1.82908,1.0345 -2.52526,0.7264 z M 15.914119,1006.517 c -0.365196,-0.6815 0.561925,-1.3224 1.225536,-0.8472 0.560874,0.4016 0.213411,1.3389 -0.496349,1.3389 -0.256119,0 -0.584254,-0.2213 -0.729187,-0.4917 z m 309.347241,0 c -0.36519,-0.6815 0.56194,-1.3224 1.22555,-0.8472 0.56087,0.4016 0.2134,1.3389 -0.49635,1.3389 -0.25612,0 -0.58426,-0.2213 -0.7292,-0.4917 z m -310.392665,-1.8458 c -0.697704,-0.4997 -0.469641,-1.2855 0.64187,-2.2118 l 1.058108,-0.8818 1.118891,0.9114 c 1.207593,0.9837 1.452893,1.837 0.632452,2.2001 -0.760442,0.3365 -2.972384,0.3251 -3.451321,-0.018 z m 309.347255,0 c -0.69926,-0.5008 -0.46884,-1.2261 0.69824,-2.1978 l 1.1134,-0.9272 1.0769,0.8975 c 1.15945,0.9662 1.38847,1.88 0.56278,2.2454 -0.76045,0.3365 -2.97239,0.3251 -3.45132,-0.018 z m -303.419276,-1.2708 c 0.710995,-1.3613 0.716844,-1.6871 0.04696,-2.6147 -0.986213,-1.36567 -0.857409,-1.95985 0.181362,-0.83667 1.045366,1.13027 1.10731,2.59257 0.1462,3.45137 -0.702263,0.6276 -0.702263,0.6276 -0.374522,0 z m 300.466986,-0.1669 c -0.78167,-0.8963 -0.64296,-2.216 0.3452,-3.28447 1.06117,-1.1474 1.14838,-0.58667 0.14347,0.92237 -0.60447,0.9077 -0.63998,1.2465 -0.20268,1.9337 0.63846,1.0034 0.45507,1.2781 -0.28599,0.4284 z m -304.839438,-2.8138 c 0.481985,-0.1483 1.270689,-0.2697 1.752675,-0.2697 0.876338,0 0.876338,0 0,0.2697 -0.481986,0.1483 -1.27069,0.2696 -1.752675,0.2696 -0.876339,0 -0.876339,0 0,-0.2696 z m 308.032738,0 c -0.87633,-0.2697 -0.87633,-0.2697 0,-0.2697 0.48199,0 1.2707,0.1214 1.75268,0.2697 0.87634,0.2696 0.87634,0.2696 0,0.2696 -0.48198,0 -1.27069,-0.1213 -1.75268,-0.2696 z M 15.328799,998.69398 c 0,-0.25886 0.295765,-0.47065 0.657253,-0.47065 0.36149,0 0.657254,0.21179 0.657254,0.47065 0,0.25885 -0.295764,0.47064 -0.657254,0.47064 -0.361488,0 -0.657253,-0.21179 -0.657253,-0.47064 z m 310.661761,0 c 0,-0.25886 0.29576,-0.47065 0.65725,-0.47065 0.36149,0 0.65725,0.21179 0.65725,0.47065 0,0.25885 -0.29576,0.47064 -0.65725,0.47064 -0.36149,0 -0.65725,-0.21179 -0.65725,-0.47064 z M 21.946066,985.15972 c -0.04385,-2.50265 0.959945,-5.76221 1.774505,-5.76221 0.545862,0 0.457111,1.08631 -0.319846,3.91485 -1.216523,4.42885 -1.405221,4.6685 -1.454659,1.84736 z m 298.215144,1.29747 c -0.19372,-0.69028 -0.63737,-2.22543 -0.98588,-3.41146 -0.72095,-2.45351 -0.80461,-3.64822 -0.25546,-3.64822 0.85531,0 1.85104,3.37248 1.72276,5.83493 -0.11505,2.20859 -0.16771,2.34253 -0.48142,1.22475 z M 21.461828,976.25808 c -0.388209,-0.51944 -0.758042,-0.59637 -2.117864,-0.44068 -1.184064,0.13557 -1.80164,0.0557 -2.19537,-0.28402 -0.370363,-0.31957 -0.399002,-0.53857 -0.0884,-0.67604 0.252697,-0.11183 0.459447,0.0217 0.459447,0.29657 0,0.35001 0.323474,0.46886 1.078855,0.39644 0.593368,-0.0569 1.234191,-0.22378 1.424049,-0.37083 0.189854,-0.14707 -0.09845,-0.18914 -0.640686,-0.0935 -0.542234,0.0956 -0.985881,0.0358 -0.985881,-0.13301 0,-0.16878 0.538576,-0.26146 1.196837,-0.20596 0.86123,0.0726 1.238839,-0.0531 1.346633,-0.44818 0.08993,-0.32964 -0.117035,-0.54908 -0.51781,-0.54908 -0.860222,0 -1.53342,-0.8647 -1.258754,-1.61683 0.197115,-0.53973 0.711569,-0.71167 2.871132,-0.95952 0.873455,-0.10025 0.851363,-0.74419 -0.02313,-0.6746 -0.301241,0.0238 -0.54771,-0.0819 -0.54771,-0.23532 0,-0.15339 0.367562,-0.27891 0.816807,-0.27891 1.011071,0 2.459184,2.49917 2.078109,3.58642 -0.301487,0.86016 -1.452644,1.27282 -2.242027,0.80368 -0.398037,-0.23655 -0.625412,-0.18748 -0.820805,0.17712 -0.387845,0.72375 -0.333052,1.14536 0.122648,0.94367 0.216097,-0.0956 1.054095,0.0264 1.862218,0.2709 l 1.469316,0.44477 -1.233489,0.33811 c -1.582504,0.43381 -1.503949,0.44495 -2.054114,-0.29117 z m 297.518032,0.27291 -1.09543,-0.31665 1.46932,-0.44637 c 0.80812,-0.24551 1.64612,-0.36813 1.86222,-0.2725 0.4557,0.20169 0.51049,-0.21992 0.12265,-0.94367 -0.20256,-0.37796 -0.41507,-0.41825 -0.84833,-0.16078 -0.83479,0.49613 -2.38677,-0.17627 -2.38677,-1.03403 0,-1.30043 1.3826,-3.37241 2.25037,-3.37241 0.44925,0 0.81681,0.12552 0.81681,0.27891 0,0.15341 -0.24647,0.2593 -0.54771,0.23532 -0.87451,-0.0696 -0.8966,0.57435 -0.0232,0.6746 2.15957,0.24785 2.67402,0.41979 2.87114,0.95952 0.27466,0.75213 -0.39853,1.61683 -1.25876,1.61683 -0.40077,0 -0.60773,0.21944 -0.51781,0.54908 0.1078,0.39512 0.48541,0.52079 1.34664,0.44818 0.65826,-0.0555 1.19683,0.0372 1.19683,0.20596 0,0.16877 -0.44365,0.22861 -0.98588,0.13301 -0.54223,-0.0956 -0.83054,-0.0535 -0.64068,0.0935 0.18985,0.14705 0.83068,0.31391 1.42405,0.37083 0.75538,0.0724 1.07885,-0.0464 1.07885,-0.39644 0,-0.27495 0.20675,-0.4084 0.45945,-0.29657 0.3106,0.13747 0.28196,0.35647 -0.0884,0.67604 -0.39373,0.33971 -1.01131,0.41959 -2.19537,0.28402 -1.35982,-0.15569 -1.72965,-0.0788 -2.11787,0.44068 -0.52651,0.70446 -0.64714,0.71949 -2.19217,0.27291 z M 25.372981,962.16462 c -2.442201,-1.74882 -1.335938,-4.73058 1.755081,-4.73058 1.33964,0 2.660311,0.69298 2.660311,1.39593 0,0.72427 -1.250617,1.20175 -2.6301,1.00421 -1.157177,-0.16574 -1.31342,-0.10151 -1.31342,0.53983 0,1.01462 1.325295,1.76648 3.113729,1.76648 3.051474,0 4.690077,-1.87345 3.81005,-4.3561 -0.524116,-1.47861 -3.989156,-4.58407 -7.50947,-6.73018 -2.198684,-1.3404 -2.436294,-1.42001 -2.046337,-0.68555 0.882192,1.66155 0.548198,2.97256 -1.04859,4.116 -1.323639,0.94782 -1.751195,1.06667 -3.833978,1.0656 -3.160825,0 -4.991783,-0.81045 -5.620775,-2.48314 -0.806261,-2.14411 0.826795,-4.11911 3.450103,-4.17252 1.520464,-0.0309 2.674566,0.52937 2.674566,1.29852 0,1.13069 -2.381387,1.79281 -2.908728,0.80875 -0.615986,-1.14948 -1.911131,-0.27189 -1.911131,1.29498 0,2.15637 4.958114,3.18413 7.293453,1.51183 1.336187,-0.95682 1.28859,-1.58102 -0.477183,-6.25821 -1.913177,-5.06764 -0.819556,-8.21242 3.545238,-10.19459 1.735841,-0.78829 1.856223,-0.91333 1.054663,-1.09551 -2.384155,-0.54185 -4.825926,-2.84843 -5.43509,-5.13416 -0.348266,-1.30677 0.40478,-4.89555 1.509872,-7.19561 1.174451,-2.4444 1.08003,-3.39298 -0.446546,-4.48613 -1.67877,-1.20213 -3.810084,-1.24137 -5.696279,-0.10485 -1.002145,0.60383 -1.348128,1.07712 -1.348128,1.84416 0,1.18964 1.12875,2.1342 1.568886,1.31287 0.624097,-1.16462 3.250973,-0.83078 3.250973,0.41315 0,0.71749 -1.375128,1.57903 -2.520352,1.57903 -1.307199,0 -3.500322,-1.42516 -3.825728,-2.48609 -0.322873,-1.05265 0.561597,-2.7462 1.869908,-3.58045 0.496542,-0.31662 1.683822,-0.6507 2.638399,-0.74238 4.658025,-0.44739 7.800213,2.10598 6.230306,5.06279 -0.235029,0.44266 -0.271349,0.80484 -0.08072,0.80484 0.64243,0 8.266591,-5.7947 9.03209,-6.86479 0.417114,-0.58308 0.7719,-1.70017 0.788415,-2.4824 0.02568,-1.21548 -0.172328,-1.55172 -1.361864,-2.31281 -0.765538,-0.4898 -1.770295,-0.89056 -2.232791,-0.89056 -1.641052,0 -3.064059,0.60459 -3.35119,1.42382 -0.306232,0.8737 0.373753,1.7188 0.896055,1.11363 0.861611,-0.99829 3.206419,0.23801 2.599489,1.37059 -0.668794,1.24801 -2.844329,1.41913 -4.348484,0.34204 -1.82946,-1.31004 -1.194484,-3.86539 1.178885,-4.74426 3.838381,-1.42134 8.000302,0.57616 7.932097,3.80699 -0.04415,2.09138 -1.220524,3.52659 -5.380056,6.56388 l -3.948919,2.88349 2.417128,-0.14353 c 4.270425,-0.25359 6.803243,1.07194 6.803243,3.56043 0,1.54642 -1.478396,3.0802 -3.281285,3.40423 -1.520582,0.27329 -4.0623,-0.56048 -4.683154,-1.53622 -1.140974,-1.79319 1.21928,-3.53636 3.218561,-2.37709 0.850529,0.49318 0.908767,0.64849 0.405867,1.08241 -0.32293,0.27863 -0.95736,0.50661 -1.409834,0.50661 -1.229275,0 -0.99237,0.91062 0.330607,1.27081 3.500715,0.95307 5.89448,-2.55405 2.971919,-4.35419 -1.063558,-0.6551 -1.555639,-0.73221 -3.969976,-0.62212 -3.082225,0.14054 -4.607074,0.85774 -5.688822,2.67568 -0.772014,1.29743 -0.77076,3.90313 0.0026,5.19726 0.729578,1.22101 2.676055,2.57501 4.354637,3.02916 2.840197,0.76843 6.255492,0.16919 6.728578,-1.18057 0.47441,-1.35353 -1.022094,-2.32746 -2.484956,-1.61721 -0.571662,0.27756 -0.554231,0.36252 0.133838,0.65246 0.624833,0.2633 0.682624,0.42694 0.274978,0.77867 -0.727361,0.62759 -1.611988,0.55302 -2.161483,-0.1822 -0.984451,-1.31721 1.494129,-2.80356 3.681872,-2.20794 1.361531,0.37068 1.663789,0.75158 1.663789,2.09668 0,1.19 -1.463708,2.62046 -2.683483,2.62254 -0.392858,4.9e-4 -0.101344,0.25839 0.676384,0.59799 1.640439,0.71629 2.503224,2.22341 1.911184,3.33848 -0.850758,1.60234 -4.369438,1.80697 -5.32225,0.30952 -0.649796,-1.02124 -0.184828,-1.73706 1.128315,-1.73706 1.420005,0 1.9145,0.61413 0.915633,1.13715 -0.703103,0.36815 -0.713435,0.43585 -0.09254,0.60646 2.220132,0.61006 3.463639,-1.33743 1.617768,-2.53364 -1.801518,-1.16747 -6.82409,-0.59717 -8.848566,1.00472 -2.06864,1.63683 -2.734368,5.1608 -1.365252,7.22683 1.307654,1.97328 4.898313,2.99446 8.107873,2.30588 4.006626,-0.85959 3.494805,-5.04094 -0.617038,-5.04094 -1.001781,0 -2.088199,0.51102 -2.088199,0.98222 0,0.12606 0.423507,0.27431 0.94113,0.32946 1.335333,0.14226 2.012369,1.01104 1.280198,1.64278 -1.248343,1.0771 -3.974004,0.18118 -3.974004,-1.30624 0,-1.07804 0.475545,-1.64594 1.784014,-2.13047 3.318371,-1.22879 6.541196,0.30081 6.541196,3.10454 0,2.28891 -3.43425,3.91873 -7.372183,3.49868 l -2.048449,-0.2185 3.780153,2.61807 c 5.023081,3.4789 6.538769,5.68274 5.615135,8.16449 -0.647561,1.73995 -2.616399,2.76834 -5.300008,2.76834 -1.83733,0 -2.397643,-0.14804 -3.471731,-0.91717 z m 284.885389,0.10985 c -2.33858,-1.40911 -2.6004,-3.75657 -0.71483,-6.40925 0.42932,-0.604 2.48166,-2.27632 4.56073,-3.71626 l 3.78016,-2.61807 -2.04845,0.2185 c -3.93793,0.42005 -7.37218,-1.20977 -7.37218,-3.49868 0,-2.80373 3.22283,-4.33333 6.5412,-3.10454 1.32663,0.49125 1.78401,1.05142 1.78401,2.18498 0,1.5182 -3.01103,2.30472 -4.09245,1.069 -0.56712,-0.64803 0.30177,-1.51668 1.51708,-1.51668 0.9438,0 1.0568,-0.33437 0.29689,-0.87853 -1.30751,-0.93629 -3.96586,-0.24704 -4.67639,1.21247 -1.47752,3.03506 3.94276,4.84097 8.52353,2.83983 3.40055,-1.48555 3.8014,-6.47928 0.71605,-8.92059 -2.02447,-1.60189 -7.04705,-2.17219 -8.84857,-1.00472 -1.84586,1.19621 -0.60236,3.1437 1.61777,2.53364 0.6209,-0.17061 0.61057,-0.23831 -0.0925,-0.60646 -0.99887,-0.52302 -0.50438,-1.13715 0.91563,-1.13715 1.31314,0 1.77811,0.71582 1.12831,1.73706 -0.95281,1.49745 -4.47149,1.29282 -5.32225,-0.30952 -0.59204,-1.11507 0.27075,-2.62219 1.91119,-3.33848 0.77772,-0.3396 1.06924,-0.59733 0.67638,-0.59799 -1.21977,-0.002 -2.68348,-1.43254 -2.68348,-2.62254 0,-1.3451 0.30225,-1.726 1.66379,-2.09668 2.18774,-0.59562 4.66632,0.89073 3.68187,2.20794 -0.5495,0.73522 -1.43413,0.80979 -2.1615,0.1822 -0.40764,-0.35173 -0.34984,-0.51537 0.27498,-0.77867 0.68807,-0.28994 0.70551,-0.3749 0.13384,-0.65246 -1.46285,-0.71025 -2.95937,0.26368 -2.48496,1.61721 0.47309,1.34976 3.88838,1.949 6.72858,1.18057 1.67858,-0.45415 3.62507,-1.80815 4.35464,-3.02916 0.77327,-1.29413 0.77452,-3.89983 0.002,-5.19726 -1.08175,-1.81794 -2.6066,-2.53514 -5.68882,-2.67568 -2.41434,-0.11009 -2.90643,-0.033 -3.96998,0.62212 -2.92256,1.80014 -0.5288,5.30726 2.97192,4.35419 1.32298,-0.36019 1.55988,-1.27081 0.33061,-1.27081 -0.45248,0 -1.08691,-0.22798 -1.40984,-0.50661 -0.5029,-0.43392 -0.44467,-0.58923 0.40587,-1.08241 1.99928,-1.15927 4.35953,0.5839 3.21856,2.37709 -0.62086,0.97574 -3.16257,1.80951 -4.68316,1.53622 -1.803,-0.32403 -3.2814,-1.85781 -3.2814,-3.40423 0,-2.48849 2.53282,-3.81402 6.80324,-3.56043 l 2.41713,0.14353 -3.94892,-2.88349 c -4.26001,-3.11066 -5.37256,-4.51288 -5.37256,-6.7714 0,-2.37381 2.21535,-4.04657 5.35914,-4.04657 4.03755,0 6.40679,3.28484 3.74435,5.19136 -1.50416,1.07709 -3.67969,0.90597 -4.34848,-0.34204 -0.62737,-1.1707 1.44479,-2.23925 2.65788,-1.37059 0.68372,0.4896 1.1637,-0.1834 0.82335,-1.15443 -0.2725,-0.7775 -1.73348,-1.38302 -3.33688,-1.38302 -0.4625,0 -1.46726,0.40076 -2.2328,0.89056 -1.18953,0.76109 -1.38753,1.09733 -1.36186,2.31281 0.0165,0.78223 0.3713,1.89932 0.78841,2.4824 0.7655,1.07009 8.38967,6.86479 9.0321,6.86479 0.19063,0 0.15431,-0.36218 -0.0807,-0.80484 -1.56991,-2.95681 1.57228,-5.51018 6.2303,-5.06279 0.95458,0.0917 2.14187,0.42576 2.63841,0.74238 1.3083,0.83425 2.19277,2.5278 1.8699,3.58045 -0.33709,1.09899 -2.53453,2.48609 -3.93847,2.48609 -1.98757,0 -3.16962,-1.66666 -1.77138,-2.49761 0.77201,-0.45881 2.25126,-0.17287 2.61474,0.50543 0.44014,0.82133 1.56889,-0.12323 1.56889,-1.31287 0,-0.76704 -0.34598,-1.24033 -1.34813,-1.84416 -1.88619,-1.13652 -4.01751,-1.09728 -5.69628,0.10485 -1.57827,1.13017 -1.59624,1.7567 -0.15131,5.27494 1.48176,3.60793 1.58496,6.64798 0.28642,8.4369 -0.99915,1.37646 -3.01532,2.76507 -4.50688,3.10406 -0.80156,0.18218 -0.68117,0.30722 1.05467,1.09551 4.36479,1.98217 5.45842,5.12695 3.54524,10.19459 -1.76577,4.67719 -1.81337,5.30139 -0.47719,6.25821 2.33535,1.67227 7.29346,0.64454 7.29346,-1.51183 0,-1.56687 -1.29514,-2.44446 -1.91113,-1.29498 -0.52734,0.98406 -2.90873,0.32194 -2.90873,-0.80875 0,-0.76915 1.1541,-1.32948 2.67457,-1.29852 2.6233,0.0534 4.25636,2.02841 3.4501,4.17252 -0.629,1.67269 -2.45995,2.48158 -5.62078,2.48314 -2.08278,0 -2.51034,-0.11778 -3.83398,-1.0656 -1.59678,-1.14344 -1.93077,-2.45445 -1.04859,-4.116 0.38996,-0.73446 0.15236,-0.65485 -2.04633,0.68555 -3.52031,2.14611 -6.98536,5.25157 -7.50947,6.73018 -0.88928,2.50876 0.75877,4.3561 3.88618,4.3561 1.7783,0 3.0376,-0.75494 3.0376,-1.82102 0,-0.58077 -0.18068,-0.64754 -1.31343,-0.48529 -1.37948,0.19754 -2.63009,-0.27994 -2.63009,-1.00421 0,-0.70295 1.32066,-1.39593 2.66031,-1.39593 3.09102,0 4.19728,2.98176 1.75508,4.73058 -1.76117,1.26115 -5.00727,1.31207 -7.00252,0.10985 z M 11.492666,944.20734 c -1.430473,-1.02433 -0.0319,-2.85639 3.223433,-4.22248 3.144186,-1.31946 6.721051,-1.64662 4.033831,-0.36896 -0.528305,0.25118 -1.662066,1.43325 -2.519471,2.62682 -1.353123,1.88364 -1.732726,2.18233 -2.875575,2.2627 -0.724166,0.0509 -1.562165,-0.0832 -1.862218,-0.29808 z m 316.080414,-0.34359 c -0.34569,-0.38829 -1.06865,-1.38667 -1.60656,-2.21862 -0.53792,-0.83195 -1.44269,-1.73065 -2.01059,-1.9971 -2.78196,-1.30528 0.768,-1.00348 3.96183,0.33683 3.23576,1.35788 4.65395,3.19812 3.24319,4.20834 -0.88605,0.63448 -2.89382,0.45012 -3.58787,-0.32945 z M 5.7890995,938.22221 c -1.1500704,-0.3969 -1.7412566,-1.67915 -1.1102148,-2.40801 0.2383422,-0.27529 1.2704447,-0.69426 2.29356,-0.93106 1.6371485,-0.37891 2.2102946,-0.36431 4.7796563,0.12173 1.605696,0.30375 4.496853,0.79796 6.424796,1.09824 3.477173,0.54159 3.49126,0.54774 1.752676,0.76647 -0.963972,0.12127 -3.428671,0.5621 -5.477111,0.97963 -3.950361,0.80518 -7.0271782,0.93766 -8.6633625,0.373 z m 322.1732205,-0.3951 c -1.92795,-0.40555 -4.29406,-0.83652 -5.25803,-0.9577 -1.73843,-0.21854 -1.72419,-0.22476 1.75267,-0.7663 1.92795,-0.30028 4.8191,-0.79449 6.4248,-1.09824 2.56936,-0.48604 3.14251,-0.50064 4.77966,-0.12173 2.15319,0.49835 2.83781,1.11516 2.45381,2.21077 -0.58263,1.66227 -4.41913,1.93933 -10.15291,0.7332 z M 17.957813,934.54963 c -2.185806,-0.47785 -4.734612,-1.58293 -5.860164,-2.54078 -1.952532,-1.66164 -1.246831,-3.2848 1.335421,-3.07156 1.013923,0.0837 1.50954,0.47874 2.882648,2.29746 0.912014,1.20799 2.048931,2.43077 2.526486,2.71728 1.438645,0.86314 1.167716,1.04621 -0.884391,0.5976 z m 304.965567,0.11435 c 0,-0.10505 0.39072,-0.42543 0.86828,-0.71195 0.47755,-0.28651 1.61447,-1.50929 2.52649,-2.71728 1.3731,-1.81872 1.86872,-2.21373 2.88264,-2.29746 4.14076,-0.34193 2.80735,3.11451 -1.84326,4.77811 -2.16992,0.77621 -4.43415,1.2606 -4.43415,0.94858 z M 19.929573,909.61277 c -1.865846,-0.59383 -3.03322,-1.60731 -4.581196,-3.97724 -1.692476,-2.59116 -2.631152,-5.71136 -2.640984,-8.77873 -0.01709,-5.32604 1.783588,-9.39549 8.14874,-18.41598 3.064541,-4.34297 5.126932,-7.66553 5.453311,-8.78538 1.367394,-4.69182 -1.193077,-15.85071 -5.917007,-25.78712 -0.863399,-1.81609 -1.558286,-3.89832 -1.558286,-4.66942 0,-2.49087 2.52554,-4.44652 5.742282,-4.44652 1.059247,0 1.798622,0.29697 3.01037,1.20912 l 1.606261,1.20913 0.524186,-0.81692 c 0.773508,-1.20548 2.567472,-1.99808 4.883016,-2.15741 1.610067,-0.11077 3.380002,0.17034 8.253391,1.31086 14.162216,3.31441 28.361118,4.93287 34.815109,3.96839 1.564196,-0.23375 6.148386,-1.68288 12.009378,-3.79633 13.693516,-4.93782 19.604576,-6.18854 27.716196,-5.86443 9.91327,0.39609 17.42975,3.69636 16.50014,7.24473 -0.42453,1.62039 -3.03733,3.43077 -5.95193,4.12399 -3.42663,0.81499 -9.10353,0.54823 -12.14897,-0.57092 -1.25719,-0.46199 -2.38169,-0.83999 -2.49886,-0.83999 -0.29535,0 -1.03299,1.96352 -1.65022,4.3927 l -0.5182,2.03946 -0.36535,-1.41193 c -0.40473,-1.56408 -0.11938,-3.38928 0.77259,-4.94179 0.32223,-0.56085 0.515,-1.01973 0.42838,-1.01973 -0.37615,0 -6.72793,2.67874 -8.10974,3.42012 l -1.52033,0.81569 1.02808,-1.04551 c 1.31836,-1.34069 4.56553,-3.04303 6.9157,-3.62559 1.82259,-0.45178 1.84981,-0.44735 3.74206,0.60833 3.58085,1.99772 8.09613,2.55104 12.3492,1.51333 2.46769,-0.6021 4.87974,-2.21264 5.28304,-3.5275 0.86445,-2.81837 -4.74902,-5.45727 -13.54618,-6.36808 -7.61023,-0.78792 -13.89057,0.47367 -27.62898,5.55005 -11.180726,4.1313 -12.324738,4.37094 -19.711894,4.12897 -8.735742,-0.28615 -18.104144,-1.67451 -28.904331,-4.28351 -5.721461,-1.38213 -7.089352,-1.5032 -8.998152,-0.79637 -3.954764,1.46444 -3.23015,5.49265 0.988045,5.49265 1.662277,0 3.388809,-0.95395 3.388809,-1.87239 0,-1.37222 -2.486317,-2.05269 -3.975062,-1.08792 -0.419371,0.27177 -0.870453,0.36056 -1.010049,0.19881 -0.422579,-0.48962 1.40958,-1.42202 2.794264,-1.42202 2.931949,0 4.158769,2.48909 1.991681,4.0409 -0.835312,0.59815 -1.533224,0.77015 -3.124992,0.77015 -1.759282,0 -2.246522,-0.1496 -3.441058,-1.05658 l -1.391577,-1.05657 -0.712055,0.88843 c -1.983051,2.47424 -7.540527,0.70034 -6.023301,-1.92259 0.530758,-0.91756 1.548296,-1.41578 1.947309,-0.95347 0.125558,0.14548 -0.06531,0.43899 -0.424138,0.65225 -0.893532,0.53101 -0.819595,1.67412 0.148868,2.30173 1.040835,0.67451 1.468698,0.65493 2.864047,-0.13102 2.004956,-1.12934 1.394959,-3.43645 -1.107831,-4.19 -1.759489,-0.52977 -3.107144,-0.30158 -4.538896,0.76856 -1.928692,1.44155 -1.884971,2.95945 0.211193,7.33226 3.598765,7.50737 5.61145,14.45099 6.013606,20.7465 0.337189,5.27847 0.108039,5.82534 -6.140451,14.65435 -5.406825,7.63976 -6.683399,10.04664 -7.421753,13.99313 -1.099476,5.87669 2.024323,13.07058 6.332671,14.58369 1.431463,0.50274 1.763288,0.51578 3.082391,0.1211 5.866407,-1.75521 6.875865,-8.76427 1.859506,-12.91124 -0.832517,-0.68824 -1.055356,-1.13858 -0.853908,-1.7257 0.442787,-1.2905 2.362918,-3.43395 4.252482,-4.74706 1.859763,-1.29242 3.334816,-1.72476 1.769058,-0.51852 -1.046075,0.80588 -5.056122,5.58542 -4.825024,5.7509 0.08384,0.06 1.111153,-0.0974 2.282926,-0.34998 2.285612,-0.49257 5.040709,-0.55138 6.811078,-0.14538 1.085186,0.24887 1.083398,0.25151 -0.19109,0.28249 -1.604088,0.039 -6.911962,0.95947 -7.401694,1.28358 -0.199652,0.13213 0.18152,0.99867 0.847041,1.92563 0.99488,1.38572 1.244133,2.20334 1.401786,4.59826 0.182607,2.77405 0.125356,3.00941 -1.201481,4.93938 -1.081782,1.57352 -1.812336,2.20242 -3.268127,2.81334 -2.109603,0.88529 -2.97234,0.94627 -4.865094,0.34388 z m 297.866877,-0.35303 c -1.40344,-0.60237 -2.17058,-1.26992 -3.22963,-2.81037 -1.31995,-1.91994 -1.37979,-2.16512 -1.20395,-4.9332 0.15148,-2.385 0.40241,-3.2205 1.38467,-4.61051 0.65982,-0.9337 1.04401,-1.80024 0.85377,-1.92563 -0.47743,-0.31468 -5.81212,-1.2331 -7.38459,-1.27133 -1.27449,-0.0309 -1.27627,-0.0336 -0.19109,-0.28249 1.77037,-0.406 4.52547,-0.34719 6.81108,0.14538 1.17177,0.25253 2.19909,0.41002 2.28292,0.34998 0.26098,-0.18688 -3.84311,-4.99649 -5.07587,-5.94845 -1.10609,-0.85415 -1.1144,-0.88287 -0.15201,-0.52573 1.61474,0.59924 4.32699,2.75786 5.26791,4.19263 1.46219,2.22961 1.4874,2.5427 0.28482,3.53672 -4.99877,4.1319 -3.97796,11.14458 1.87727,12.89645 1.3191,0.39468 1.65093,0.38164 3.08239,-0.1211 4.30835,-1.51311 7.43215,-8.707 6.33267,-14.58369 -0.73643,-3.93622 -2.02047,-6.37197 -7.18413,-13.62794 -5.92686,-8.32843 -6.51635,-9.54813 -6.51635,-13.48309 0,-5.65251 2.444,-14.5476 6.16183,-22.42637 2.08367,-4.4157 2.11835,-5.75594 0.18631,-7.2 -1.41736,-1.05938 -2.76928,-1.28572 -4.52396,-0.7574 -2.4068,0.72466 -3.06966,2.93275 -1.24823,4.15808 1.23805,0.83285 2.12555,0.86409 3.08058,0.10842 0.90118,-0.71307 0.93427,-1.73521 0.0727,-2.24721 -0.35883,-0.21326 -0.54969,-0.50677 -0.42413,-0.65225 0.39901,-0.46231 1.41655,0.0359 1.9473,0.95347 1.50277,2.59793 -4.0356,4.40264 -5.99779,1.95441 l -0.68656,-0.85661 -1.43106,1.02475 c -3.36836,2.41201 -8.99981,0.45157 -7.38089,-2.56946 0.1497,-0.27935 0.86006,-0.72561 1.57859,-0.99168 1.05602,-0.39104 1.54369,-0.41338 2.54443,-0.11655 1.28136,0.38006 1.97712,1.10871 1.33151,1.39443 -0.20316,0.0899 -0.61304,-0.0468 -0.91086,-0.30371 -0.74156,-0.63985 -2.3379,-0.58691 -3.21434,0.10659 -0.94195,0.74533 -0.91461,1.0517 0.18297,2.05089 1.95425,1.77904 6.27783,0.53298 6.27783,-1.80926 0,-0.86139 -0.33336,-1.3872 -1.33352,-2.10339 -2.14867,-1.53863 -3.81772,-1.51938 -10.68888,0.12322 -10.999,2.6294 -19.97325,3.94661 -28.69863,4.21231 -4.55312,0.13865 -6.21488,0.0691 -8.1944,-0.34299 -1.36567,-0.28429 -7.07697,-2.18638 -12.69175,-4.22686 -10.95682,-3.98184 -14.72544,-4.93657 -20.81312,-5.27273 -6.28831,-0.34725 -14.727,1.41098 -17.69618,3.68704 -2.61645,2.00569 -1.20252,4.62679 3.30706,6.13051 4.08995,1.36379 9.8926,0.724 13.36089,-1.47315 1.732,-1.09721 2.53086,-1.06322 5.71736,0.24328 1.94284,0.79659 5.89377,3.50444 5.51203,3.77779 -0.10775,0.0772 -0.9484,-0.28853 -1.86809,-0.81266 -1.76397,-1.00527 -7.17637,-3.27417 -7.41049,-3.10651 -0.0756,0.0541 0.14074,0.65781 0.48079,1.34149 0.66876,1.34453 0.78332,4.21612 0.21858,5.47885 -0.3301,0.7381 -0.35339,0.72324 -0.3945,-0.25182 -0.0587,-1.39369 -1.335,-5.34863 -1.79114,-5.5505 -0.20072,-0.0888 -1.41775,0.21918 -2.70454,0.68446 -3.10935,1.12431 -8.99133,1.4021 -12.03919,0.56859 -3.88525,-1.06251 -6.64311,-3.54157 -6.02439,-5.41537 1.07699,-3.26166 9.50567,-6.03731 18.33323,-6.03731 7.50656,0 13.38006,1.36657 26.59439,6.18763 5.5468,2.02368 9.49417,3.26053 11.26442,3.52954 6.61331,1.00497 21.93766,-0.78808 35.96896,-4.20862 2.6155,-0.6376 5.43247,-1.11536 6.57253,-1.11469 2.24989,9.8e-4 4.49922,0.82398 5.31287,1.94307 0.28901,0.39751 0.57107,0.76276 0.62679,0.81165 0.0557,0.0489 0.798,-0.40998 1.64951,-1.01973 1.11676,-0.79969 1.93278,-1.10863 2.92828,-1.10863 3.1928,0 5.71826,1.9638 5.71826,4.44652 0,0.7711 -0.69489,2.85333 -1.5583,4.66942 -4.72392,9.93641 -7.28439,21.0953 -5.917,25.78712 0.32638,1.11985 2.38876,4.44241 5.45331,8.78538 6.36515,9.02049 8.1658,13.08994 8.14874,18.41598 -0.01,3.06737 -0.94851,6.18757 -2.64098,8.77873 -1.5759,2.41268 -2.72759,3.39526 -4.67667,3.98995 -1.95875,0.59766 -2.6988,0.54141 -4.81237,-0.36574 z M 21.463165,902.85863 c 0,-0.16185 0.394351,-0.273 0.876337,-0.247 0.481986,0.026 0.876338,0.15842 0.876338,0.29427 0,0.13585 -0.394352,0.24699 -0.876338,0.24699 -0.481986,0 -0.876337,-0.13242 -0.876337,-0.29426 z m 297.954855,0.0473 c 0,-0.13585 0.39436,-0.26828 0.87634,-0.29427 0.48199,-0.026 0.87634,0.0851 0.87634,0.24699 0,0.16185 -0.39435,0.29426 -0.87634,0.29426 -0.48198,0 -0.87634,-0.11114 -0.87634,-0.24698 z M 22.339502,901.89784 c -0.361489,-0.16729 -1.093963,-0.30633 -1.627718,-0.30897 -0.533752,-0.002 -1.18222,-0.28813 -1.441034,-0.63442 -0.386626,-0.51731 -0.270635,-0.7728 0.650213,-1.4322 1.304389,-0.93405 1.146662,-1.36837 -0.419099,-1.15404 -0.608236,0.0833 -1.105883,0.007 -1.105883,-0.16959 0,-0.17653 0.394353,-0.24712 0.876339,-0.15686 0.489955,0.0917 0.876337,0.01 0.876337,-0.18626 0,-0.1927 -0.591528,-0.35036 -1.314506,-0.35036 -0.722979,0 -1.314507,0.14119 -1.314507,0.31377 0,0.17257 -0.190989,0.31376 -0.424415,0.31376 -0.612284,0 -0.06164,-0.86099 0.681182,-1.06511 0.344948,-0.0948 1.158917,-0.0276 1.808818,0.14936 0.98496,0.26816 1.294286,0.218 1.858415,-0.30135 0.492475,-0.45338 1.004909,-0.57615 1.881738,-0.45081 0.66273,0.0947 1.204964,0.28168 1.204964,0.41542 0,0.28691 -2.15239,0.75844 -2.995125,0.65615 -0.352279,-0.0427 -0.523555,0.15545 -0.43033,0.49798 0.106462,0.39117 0.546913,0.56901 1.409269,0.56901 1.802737,0 2.316459,0.75099 1.590785,2.32552 -0.632732,1.37287 -0.751655,1.43814 -1.765443,0.969 z m 296.195268,-0.95631 c -0.73155,-1.58728 -0.22255,-2.33821 1.58494,-2.33821 0.86235,0 1.3028,-0.17784 1.40927,-0.56901 0.0932,-0.34253 -0.0781,-0.54074 -0.43034,-0.49798 -0.84274,0.10229 -2.99512,-0.36924 -2.99512,-0.65615 0,-0.13374 0.54224,-0.32068 1.20496,-0.41542 0.87683,-0.12534 1.38927,-0.002 1.88174,0.45081 0.56413,0.51935 0.87346,0.56951 1.85842,0.30135 0.6499,-0.17693 1.46386,-0.24415 1.80881,-0.14936 0.74282,0.20412 1.29347,1.06511 0.68119,1.06511 -0.23343,0 -0.42442,-0.14119 -0.42442,-0.31376 0,-0.17258 -0.59153,-0.31377 -1.3145,-0.31377 -0.72299,0 -1.31452,0.15766 -1.31452,0.35036 0,0.19588 0.38639,0.278 0.87635,0.18626 0.48198,-0.0903 0.87633,-0.0196 0.87633,0.15686 0,0.17653 -0.49765,0.25285 -1.10588,0.16959 -1.56576,-0.21433 -1.72349,0.21999 -0.4191,1.15404 1.35634,0.97124 0.92814,1.90294 -0.98234,2.13744 -0.66941,0.0822 -1.52798,0.24567 -1.90793,0.36334 -0.5257,0.16281 -0.83352,-0.0957 -1.28786,-1.0815 z M 22.849877,893.25752 c -1.017183,-1.59864 -1.554641,-4.90467 -1.069255,-6.57723 0.41864,-1.44255 0.460002,-1.48043 0.513946,-0.47064 0.03225,0.60399 0.448036,2.41917 0.923931,4.03373 0.886097,3.0062 0.682996,4.66688 -0.368622,3.01414 z m 295.991363,0.3626 c -0.14951,-0.27899 0.11319,-1.8134 0.58378,-3.40979 0.47058,-1.59638 0.8846,-3.39669 0.92004,-4.00068 0.0565,-0.96351 0.11917,-0.89399 0.51078,0.56681 0.48402,1.80548 -0.12509,5.21902 -1.17914,6.60812 -0.47009,0.61953 -0.60874,0.65861 -0.83546,0.23554 z M 15.386253,876.0619 c -0.536171,-0.46263 -0.236569,-0.83399 0.672829,-0.83399 0.321323,0 0.584224,0.28239 0.584224,0.62753 0,0.72396 -0.552167,0.81465 -1.257053,0.20646 z m 310.604307,-0.20646 c 0,-0.60295 0.85689,-0.85063 1.45676,-0.42107 0.33171,0.23753 -0.49766,1.0486 -1.07224,1.0486 -0.21149,0 -0.38452,-0.28239 -0.38452,-0.62753 z M 20.151545,875.13843 c -0.0017,-0.30806 0.315783,-0.90839 0.705268,-1.33405 0.673636,-0.7362 0.669088,-1.04378 -0.03698,-2.49852 -0.300269,-0.61867 -0.294783,-0.61893 0.388458,-0.0185 0.945398,0.83085 0.865914,2.3354 -0.183315,3.46987 -0.638693,0.69058 -0.871335,0.79211 -0.873451,0.38117 z m 301.347785,-0.48515 c -0.95347,-1.16153 -0.98424,-2.56573 -0.0738,-3.36588 0.68323,-0.60047 0.68872,-0.60021 0.38845,0.0185 -0.70786,1.45848 -0.70905,1.76401 -0.01,2.52816 0.40439,0.44197 0.67377,1.01728 0.5986,1.27848 -0.0924,0.3212 -0.38485,0.17256 -0.90346,-0.45922 z M 16.205137,874.12974 c -1.001409,-0.40992 -1.017998,-0.44936 -0.19329,-0.45952 0.496174,-0.006 1.284879,0.19617 1.752676,0.44954 1.146877,0.62117 -0.04764,0.62881 -1.559386,0.01 z m 308.664203,-0.01 c 0.4678,-0.25336 1.2565,-0.45566 1.75268,-0.44955 0.82471,0.0102 0.80811,0.0496 -0.1933,0.45952 -1.51174,0.61884 -2.70626,0.6112 -1.55938,-0.01 z M 19.053235,873.97286 c 0.148942,-0.17258 0.357756,-0.31377 0.46403,-0.31377 0.106273,0 0.193224,0.14119 0.193224,0.31377 0,0.17257 -0.208814,0.31376 -0.46403,0.31376 -0.255216,0 -0.342166,-0.14119 -0.193224,-0.31376 z m 303.870145,-0.0185 c 0,-0.18276 0.19717,-0.24502 0.43817,-0.13837 0.24099,0.10666 0.43817,0.25619 0.43817,0.33229 0,0.0761 -0.19718,0.13836 -0.43817,0.13836 -0.241,0 -0.43817,-0.14953 -0.43817,-0.33228 z m -307.571792,-2.0036 c -0.717242,-0.5467 -0.92989,-0.98506 -0.740281,-1.52603 0.226339,-0.64576 0.529492,-0.759 2.031999,-0.759 1.502508,0 1.805659,0.11324 2.032,0.759 0.189609,0.54097 -0.02305,0.97933 -0.740283,1.52603 -0.553468,0.42187 -1.134739,0.76704 -1.291717,0.76704 -0.156974,0 -0.738248,-0.34517 -1.291718,-0.76704 z m 309.347252,0 c -0.71724,-0.5467 -0.92989,-0.98506 -0.74029,-1.52603 0.22634,-0.64576 0.5295,-0.759 2.03201,-0.759 1.50251,0 1.80566,0.11324 2.03199,0.759 0.18961,0.54097 -0.0231,0.97933 -0.74027,1.52603 -0.55348,0.42187 -1.13475,0.76704 -1.29172,0.76704 -0.15698,0 -0.73826,-0.34517 -1.29172,-0.76704 z m -313.3248,-2.84981 -1.040336,-0.79297 1.141409,-0.81735 c 0.859617,-0.61555 1.411429,-0.76881 2.235165,-0.62076 0.93269,0.16763 1.088425,0.37011 1.057533,1.375 -0.05619,1.828 -1.60584,2.2189 -3.393771,0.85608 z m 7.403547,0.71454 c -0.03111,-0.0431 -0.112236,-0.67896 -0.180275,-1.41294 -0.110866,-1.19598 -0.0097,-1.35498 0.974535,-1.53187 0.82903,-0.149 1.378046,0.002 2.239653,0.61995 l 1.141408,0.81735 -1.040336,0.79297 c -0.829147,0.63201 -2.860612,1.09503 -3.134985,0.71454 z m 301.962423,-0.70027 -1.05906,-0.80724 1.14141,-0.81735 c 0.86161,-0.61698 1.41062,-0.76895 2.23965,-0.61995 0.97264,0.17481 1.09016,0.35001 1.02752,1.53187 -0.0625,1.17852 -0.20045,1.34533 -1.1806,1.4272 -0.74028,0.0618 -1.46252,-0.1761 -2.16892,-0.71453 z m 7.63046,0.53859 c -0.25751,-0.1268 -0.4845,-0.76081 -0.50442,-1.40894 -0.0309,-1.00489 0.12484,-1.20737 1.05754,-1.375 0.82373,-0.14805 1.37554,0.005 2.23515,0.62076 l 1.14142,0.81735 -1.04034,0.79297 c -1.04424,0.79595 -2.01741,0.98216 -2.88935,0.55286 z M 15.842719,868.43204 c 0.184666,-0.68664 1.45784,-0.78378 1.45784,-0.11123 0,0.25649 -0.362966,0.5164 -0.806585,0.57758 -0.585569,0.0808 -0.764023,-0.047 -0.651255,-0.46635 z m 309.466981,0.1795 c -0.38238,-0.44305 0.46214,-1.04778 1.08084,-0.77397 0.69495,0.30755 0.58267,1.11507 -0.15504,1.11507 -0.34726,0 -0.76387,-0.15351 -0.9258,-0.3411 z m -310.702753,-2.3985 c -0.360517,-1.02858 1.645473,-2.58977 2.599283,-2.02291 0.337224,0.2004 0.719189,0.28842 0.848817,0.1956 0.372233,-0.26655 0.841463,1.42181 0.567157,2.04069 -0.182656,0.4121 -0.704738,0.55806 -1.99611,0.55806 -1.492074,0 -1.788448,-0.11323 -2.019147,-0.77144 z m 309.404713,0.21338 c -0.27431,-0.61888 0.19492,-2.30724 0.56715,-2.04069 0.12963,0.0928 0.51159,0.005 0.84882,-0.1956 0.95382,-0.56686 2.9598,0.99433 2.59928,2.02291 -0.23069,0.65821 -0.52707,0.77144 -2.01914,0.77144 -1.29137,0 -1.81345,-0.14596 -1.99611,-0.55806 z M 18.624417,863.31229 c -0.431049,-0.34107 -0.946151,-0.54824 -1.144673,-0.46039 -0.198521,0.0879 -0.670171,-0.26845 -1.048113,-0.7918 -0.377943,-0.52336 -0.62457,-0.95156 -0.548061,-0.95156 0.07651,0 1.009917,0.63537 2.074243,1.41194 1.064325,0.77656 1.826056,1.41193 1.692734,1.41193 -0.133326,0 -0.595082,-0.27905 -1.02613,-0.62012 z m 306.033313,-0.71865 c 2.15634,-1.63934 2.4681,-1.79031 1.77099,-0.85757 -0.25795,0.34514 -0.67087,0.62753 -0.91761,0.62753 -0.24673,0 -0.30677,0.17649 -0.13342,0.3922 0.17336,0.21572 0.15033,0.28501 -0.0512,0.15401 -0.20149,-0.13101 -0.87393,0.0784 -1.49429,0.46536 -0.62037,0.38696 -0.24888,0.0352 0.82551,-0.78153 z M 12.741916,862.03579 c 0.542203,-2.45611 0.696658,-2.6489 3.549799,-4.43072 2.556062,-1.59628 4.264592,-3.49771 4.285489,-4.76934 0.0078,-0.4781 -0.31234,-0.3773 -1.744315,0.54909 -1.683695,1.08924 -2.50655,1.44201 -2.003195,0.8588 0.13096,-0.15174 -0.6954,-0.57071 -1.836357,-0.93105 -1.561169,-0.49307 -1.816,-0.65772 -1.02988,-0.66542 0.574522,-0.006 1.806333,0.1532 2.737354,0.35294 1.467441,0.31483 1.809581,0.28747 2.570308,-0.20551 1.059002,-0.68628 1.094016,-1.14412 0.183873,-2.40443 -0.532559,-0.73746 -0.557999,-0.92848 -0.109542,-0.82249 1.910951,0.45165 2.262647,3.93522 0.576884,5.71404 -0.606464,0.63994 -0.98744,1.29704 -0.846607,1.46021 0.140827,0.16317 1.039323,0.58281 1.996652,0.93254 1.899554,0.69394 2.790685,1.85363 2.362685,3.07475 l -0.267545,0.76333 -0.657937,-0.67264 c -0.361867,-0.36995 -1.050076,-0.67264 -1.52935,-0.67264 -1.272486,0 -3.020066,-1.39139 -3.036265,-2.41741 l -0.01385,-0.87711 -1.081577,0.88034 c -0.616977,0.50219 -1.106354,1.31088 -1.139256,1.88259 l -0.05768,1.00224 -0.322808,-1.09818 c -0.348993,-1.18725 -0.513389,-0.89127 -0.633899,1.14127 -0.0741,1.24975 -1.188651,2.93766 -1.939778,2.93766 -0.199445,0 -0.205387,-0.71228 -0.01319,-1.58286 z M 328.77709,862.811 c -0.40646,-0.44422 -0.78478,-1.32667 -0.84072,-1.96103 -0.19517,-2.21331 -0.30118,-2.43333 -0.63131,-1.31025 l -0.32281,1.09818 -0.0577,-1.00224 c -0.0329,-0.57171 -0.52227,-1.3804 -1.13925,-1.88259 l -1.08158,-0.88034 -0.0139,0.87711 c -0.0162,1.02602 -1.76378,2.41741 -3.03627,2.41741 -0.47927,0 -1.16748,0.30269 -1.52935,0.67264 l -0.65793,0.67264 -0.26755,-0.76333 c -0.428,-1.22112 0.46314,-2.38081 2.36269,-3.07475 0.95733,-0.34973 1.85582,-0.76937 1.99665,-0.93254 0.14083,-0.16317 -0.24014,-0.82027 -0.8466,-1.46021 -1.68577,-1.77882 -1.33407,-5.26239 0.57687,-5.71404 0.44846,-0.10599 0.42302,0.085 -0.10954,0.82249 -0.91013,1.26031 -0.87512,1.71815 0.18388,2.40443 0.76073,0.49298 1.10287,0.52034 2.57031,0.20551 0.93102,-0.19974 2.16283,-0.35857 2.73735,-0.35294 0.78612,0.008 0.53129,0.17235 -1.02988,0.66542 -1.14096,0.36034 -1.96732,0.77931 -1.83636,0.93105 0.50336,0.58321 -0.3195,0.23044 -2.0032,-0.8588 -1.43197,-0.92639 -1.75216,-1.02719 -1.74431,-0.54909 0.0209,1.27163 1.72943,3.17306 4.28549,4.76934 2.85314,1.78182 3.0076,1.97461 3.5498,4.43072 0.38567,1.74707 0.0121,2.00683 -1.11485,0.77521 z M 13.576124,856.82888 c 0,-0.1104 0.326203,-0.37154 0.724893,-0.58029 0.610532,-0.31968 0.506838,-0.35665 -0.657253,-0.23431 -1.630698,0.17139 -1.808796,-0.29395 -0.396267,-1.03539 l 0.98588,-0.51749 -0.98588,0.20708 c -0.726064,0.1525 -0.98588,0.0775 -0.98588,-0.28472 0,-0.52257 0.754991,-0.63719 1.615722,-0.24527 0.737184,0.33565 1.4746,1.85533 1.173206,2.41775 -0.244311,0.4559 -1.474421,0.68336 -1.474421,0.27264 z m 314.007196,-0.27264 c -0.30139,-0.56242 0.43602,-2.0821 1.17321,-2.41775 0.86072,-0.39192 1.61572,-0.2773 1.61572,0.24527 0,0.36219 -0.25982,0.43722 -0.98588,0.28472 l -0.98588,-0.20708 0.98588,0.51749 c 1.41252,0.74144 1.23443,1.20678 -0.39627,1.03539 -1.16409,-0.12234 -1.26779,-0.0854 -0.65725,0.23431 0.88516,0.46348 0.93172,0.78102 0.11452,0.78102 -0.33571,0 -0.72453,-0.21302 -0.86405,-0.47337 z M 138.16196,845.0753 c -3.60801,-0.74603 -4.98758,-4.39403 -2.37042,-6.26812 2.05257,-1.46981 5.71414,-1.18544 6.61637,0.51385 0.81373,1.5326 -0.8826,3.00732 -2.67088,2.32199 -0.89864,-0.34439 -1.14143,-1.38825 -0.39928,-1.7167 0.70494,-0.31198 0.0421,-0.78124 -1.10359,-0.78124 -1.20726,0 -2.40891,1.05995 -2.40891,2.12485 0,2.93996 4.75345,3.97654 8.8394,1.92761 1.89531,-0.95043 6.79152,-4.28845 7.8573,-5.35677 l 0.83168,-0.83366 -1.48436,0.32622 c -1.99853,0.43922 -4.29308,0.086 -5.52083,-0.84981 -1.22422,-0.93314 -1.6922,-3.47068 -0.89442,-4.84984 1.56907,-2.71257 7.62154,-2.65226 8.89743,0.0887 0.73193,1.57235 -1.60508,3.09839 -3.10266,2.02601 -0.80603,-0.57718 -0.62635,-1.44546 0.37883,-1.83068 1.29229,-0.49524 0.30781,-1.24421 -1.63545,-1.24421 -2.2457,0 -3.65087,1.14725 -3.65087,2.98076 0,2.63222 2.43261,3.55338 6.66677,2.52454 3.10752,-0.75509 7.46271,-1.4168 9.35737,-1.42174 2.73248,-0.007 6.25689,1.41606 7.92014,3.19816 l 1.37857,1.47709 0.53764,-0.92945 c 0.7999,-1.38284 3.20106,-2.73004 5.84789,-3.28103 2.68298,-0.55852 6.77351,-0.25884 11.1354,0.81579 1.33365,0.32857 3.03477,0.5929 3.78027,0.58742 5.0118,-0.0369 4.99704,-5.90507 -0.015,-5.94156 -1.83077,-0.0134 -2.76453,0.75192 -1.506,1.23423 1.5269,0.58517 0.88919,2.20719 -0.86777,2.20719 -0.97265,0 -2.17113,-0.99624 -2.17113,-1.80477 0,-0.93606 1.99024,-2.5065 3.47181,-2.73952 1.48228,-0.23313 3.83729,0.40409 5.02684,1.36017 1.15826,0.93093 1.43795,3.43172 0.52518,4.69567 -1.19267,1.65154 -3.98017,2.34313 -6.58537,1.63386 -0.61817,-0.1683 -1.12394,-0.18906 -1.12394,-0.0461 0,0.44712 8.11828,5.90713 9.59754,6.45489 2.8782,1.0658 6.44113,0.59909 7.44264,-0.97491 1.05649,-1.6604 0.031,-3.55904 -1.92235,-3.55904 -1.14565,0 -1.80852,0.46926 -1.10358,0.78124 0.74215,0.32845 0.49936,1.37231 -0.39928,1.7167 -1.45366,0.55709 -3.09892,-0.34927 -3.09892,-1.70717 0,-0.84874 2.0274,-2.04583 3.46482,-2.04583 4.06088,0 6.20359,2.96828 4.00586,5.54928 -1.11658,1.3113 -2.32199,1.73969 -4.89521,1.73969 -3.00384,0 -5.24961,-0.94268 -9.62469,-4.04001 l -3.76295,-2.66397 0.20214,1.74538 c 0.35305,3.04868 -1.49212,4.8862 -4.90656,4.8862 -2.15507,0 -3.64397,-0.66681 -4.41289,-1.97631 -1.08342,-1.84512 0.6981,-3.9852 3.3175,-3.9852 2.25253,0 3.41241,2.4105 1.42293,2.95718 -0.88731,0.24382 -1.89954,-0.34929 -1.89954,-1.11302 0,-0.85047 -1.08787,-0.72422 -1.67216,0.19405 -1.55838,2.4492 3.42237,4.29843 5.93762,2.20449 0.96068,-0.79975 1.06461,-1.12923 0.90882,-2.88118 -0.14724,-1.65581 -0.38073,-2.13126 -1.43285,-2.91765 -1.64651,-1.23064 -3.68447,-1.68258 -6.84832,-1.51871 -3.93716,0.20394 -6.63627,1.98221 -7.27296,4.79172 -0.45989,2.02936 0.72068,3.6171 2.68954,3.6171 1.3179,0 2.14436,-0.73555 1.77155,-1.57668 -0.27249,-0.61478 -0.35393,-0.62728 -1.0688,-0.16402 -0.65883,0.42695 -0.84941,0.43626 -1.28238,0.0627 -1.19124,-1.02784 0.73326,-2.09235 2.38317,-1.31822 1.33396,0.62588 1.68527,1.54591 0.98466,2.57869 -1.08792,1.60373 -4.31448,1.53349 -5.87808,-0.12795 l -0.93122,-0.98952 -0.49872,0.78381 c -0.66022,1.03761 -3.15123,1.78932 -4.61178,1.39169 -2.05145,-0.55852 -2.65336,-2.38284 -1.14302,-3.46437 1.09923,-0.78712 2.46433,-0.80663 3.03479,-0.0434 0.31274,0.41844 0.26264,0.75226 -0.17658,1.17662 -0.59896,0.57869 -0.62832,0.57787 -1.26623,-0.0351 -0.59191,-0.56879 -0.67996,-0.57785 -0.94048,-0.0968 -0.52882,0.97646 -0.0435,1.66092 1.25322,1.76754 2.48522,0.20435 3.87216,-1.79275 2.94933,-4.24684 -0.9957,-2.64791 -3.96682,-4.16986 -8.14031,-4.16986 -4.77864,0 -7.38386,1.7398 -7.40611,4.94586 -0.01,1.37969 0.18213,1.78997 1.16545,2.49411 1.38898,0.99462 3.82546,1.10252 5.17323,0.2291 0.95452,-0.61857 1.14292,-2.3124 0.32254,-2.89986 -0.75991,-0.54415 -1.22687,-0.46323 -1.22687,0.2126 0,0.324 -0.29326,0.76338 -0.65168,0.9764 -1.59917,0.95037 -3.18834,-1.06147 -1.74227,-2.20569 1.86745,-1.47764 5.46113,-0.12306 5.46113,2.05848 0,1.46093 -0.5931,2.22586 -2.18207,2.81426 -4.33688,1.60594 -8.47502,-1.0577 -7.61642,-4.90256 l 0.29847,-1.3366 -3.68474,2.69102 c -4.8862,3.56846 -8.19811,4.70346 -11.645,3.99075 z m -22.44902,-7.57748 c -0.46408,-0.89399 -0.18942,-1.41492 0.87335,-1.65646 0.91081,-0.20701 1.08954,-0.62591 0.3977,-0.9321 -0.6355,-0.28124 -0.53736,-1.58991 0.14986,-1.99832 0.3234,-0.1922 0.71469,-0.25875 0.86952,-0.14788 0.15482,0.11086 -0.0213,0.36013 -0.39144,0.55393 -0.53447,0.27985 -0.5756,0.5122 -0.19991,1.12919 0.42772,0.70246 0.45479,0.70924 0.2826,0.0709 -0.10473,-0.38828 -0.0234,-0.70597 0.18086,-0.70597 0.68172,0 0.94271,0.64977 0.43644,1.08659 -0.38684,0.33377 -0.32091,0.51182 0.29091,0.78565 0.71683,0.32084 0.7039,0.33717 -0.13774,0.17403 -0.76993,-0.14924 -0.9861,-0.004 -1.26358,0.84787 -0.18412,0.56535 -0.30839,1.1338 -0.27614,1.26323 0.14066,0.56471 -0.88081,0.16819 -1.21243,-0.47064 z m 3.27015,0.21007 c -0.60986,-0.43671 -0.61771,-0.59583 -0.0657,-1.33349 0.34475,-0.46069 0.7347,-1.0847 0.86653,-1.3867 0.15865,-0.36343 0.68598,-0.54908 1.55961,-0.54908 1.32964,0 1.45417,0.13188 1.86727,1.97759 0.14215,0.6352 1.03914,0.60466 0.9385,-0.032 -0.0781,-0.49395 0.81551,-0.33215 1.05941,0.19182 0.18573,0.39896 -3.38071,1.62769 -4.72444,1.62769 -0.44479,0 -1.12034,-0.22314 -1.50122,-0.49588 z m 101.73739,0.0882 c -1.26051,-0.35667 -1.50538,-0.67736 -0.7668,-1.00423 0.24099,-0.10665 0.43817,-0.60215 0.43817,-1.1011 0,-1.48748 2.69043,-1.96889 3.30128,-0.59071 0.14472,0.3265 0.39772,0.58916 0.56222,0.58366 0.5715,-0.019 1.83269,-0.8457 1.83269,-1.20122 0,-0.48127 -0.74786,-0.45601 -1.02432,0.0346 -0.13202,0.2343 -0.23492,0.17114 -0.25559,-0.15689 -0.019,-0.30199 0.26117,-0.54908 0.62266,-0.54908 0.36149,0 0.65725,-0.1412 0.65725,-0.31377 0,-0.17256 -0.19717,-0.31376 -0.43816,-0.31376 -0.241,0 -0.43817,-0.14119 -0.43817,-0.31377 0,-0.59437 0.89606,-0.31228 1.36897,0.43096 0.34956,0.54936 0.33345,0.93261 -0.0614,1.46093 -0.46038,0.61598 -0.40952,0.78618 0.36346,1.2163 0.66073,0.36766 0.83505,0.7286 0.6582,1.36295 -0.27467,0.9853 -1.01471,1.17042 -1.01471,0.25385 0,-0.33496 -0.18857,-0.69247 -0.41904,-0.79447 -0.23046,-0.10199 -0.30796,-0.39272 -0.17221,-0.64604 0.27156,-0.50674 -0.19387,-0.59198 -1.06673,-0.19539 -0.31236,0.14192 -0.43671,0.49044 -0.2796,0.78361 0.65363,1.21974 -1.35116,1.76579 -3.86816,1.05358 z m -114.9098,-0.43755 c -5.74472,-0.8462 -6.008196,-0.97045 -2.13162,-1.00529 2.23355,-0.02 4.40144,0.16151 5.80574,0.48628 4.41187,1.02032 2.02158,1.35798 -3.67412,0.51901 z m 125.60061,0.25323 c -0.41818,-0.18975 0.0322,-0.42175 1.5336,-0.79007 2.83394,-0.69519 6.5453,-0.93248 8.69815,-0.55614 l 1.75267,0.30639 -1.53359,0.0365 c -0.84347,0.02 -3.38739,0.3166 -5.65316,0.65904 -2.26576,0.34244 -4.13894,0.62045 -4.1626,0.61781 -0.0237,-0.002 -0.30945,-0.1257 -0.63507,-0.27346 z M 61.471617,837.25948 c -0.528185,-0.15235 -1.304559,-0.67287 -1.725278,-1.15673 -1.715262,-1.97262 -1.817685,-2.00634 -3.544564,-1.16718 -2.081884,1.01168 -5.608151,1.05737 -7.317039,0.0948 -1.529829,-0.86171 -1.195395,-1.08169 0.556787,-0.36623 1.254731,0.51232 1.469557,0.51822 2.578823,0.0708 1.266612,-0.51089 1.261301,-0.48716 0.768309,-3.43396 l -0.23622,-1.41194 0.617407,1.1796 c 0.339573,0.64876 0.830629,1.36355 1.091237,1.5884 0.355599,0.30682 0.141504,0.69751 -0.858035,1.56585 -1.120559,0.97346 -1.205148,1.15477 -0.533164,1.14287 0.439287,-0.008 1.324162,-0.18428 1.966397,-0.3922 1.329978,-0.4306 5.185749,-2.91376 5.185749,-3.33969 0,-0.56061 2.940989,-1.56507 5.386448,-1.83967 1.375327,-0.15444 2.500598,-0.16424 2.500598,-0.0218 0,0.5373 -2.358097,1.33536 -4.102429,1.38839 -2.838432,0.0863 -3.25177,0.20401 -1.593771,0.45392 l 1.533591,0.23115 -1.399616,0.0413 c -0.798399,0.0235 -1.927712,0.374 -2.629009,0.8158 l -1.229407,0.7745 1.20497,0.01 c 1.31739,0.0108 2.957639,0.98129 2.957639,1.74987 0,0.2667 0.467603,0.81976 1.039121,1.22901 1.039107,0.74408 1.039112,0.7441 0.109542,0.92274 -1.12591,0.21638 -1.129412,0.21619 -2.328086,-0.12955 z m 215.732163,0.0949 c -0.76508,-0.14128 -0.76117,-0.17221 0.0749,-0.59153 0.48516,-0.24334 1.01194,-0.86567 1.1706,-1.38295 0.33513,-1.09264 1.6945,-1.87836 3.27422,-1.8925 l 1.10747,-0.01 -1.2294,-0.77449 c -0.7013,-0.4418 -1.83062,-0.79223 -2.62901,-0.8158 l -1.39962,-0.0413 1.53359,-0.23116 c 1.658,-0.24991 1.24467,-0.36762 -1.59377,-0.45392 -1.74526,-0.0531 -4.10242,-0.85117 -4.10242,-1.38903 0,-0.24895 3.53308,0.0389 5.24078,0.4271 0.45095,0.10248 1.87165,1.04991 3.15714,2.10538 2.24356,1.84214 4.8862,3.0541 6.69134,3.06875 0.77989,0.006 0.76033,-0.0631 -0.241,-0.85596 -1.56609,-1.23999 -2.44001,-2.1156 -1.86564,-1.86927 0.30465,0.13066 0.84643,-0.35865 1.40976,-1.27326 0.68856,-1.11793 0.91849,-1.3004 0.92924,-0.73748 0.008,0.4114 -0.21393,1.29348 -0.49288,1.96017 -0.43965,1.05079 -0.40145,1.29579 0.287,1.84054 0.96502,0.76358 2.30449,0.80378 3.68647,0.11064 0.79459,-0.39854 0.98562,-0.4166 0.82969,-0.0784 -0.63411,1.37506 -5.48315,1.65202 -7.9485,0.454 -1.42976,-0.69478 -1.64999,-0.72244 -2.2622,-0.28404 -0.37304,0.26712 -0.97886,0.90194 -1.34627,1.41072 -0.36742,0.50878 -1.16437,1.06018 -1.771,1.22533 -1.15733,0.31508 -1.21846,0.317 -2.51044,0.0784 z m -58.80728,-0.433 c -0.16193,-0.18761 -0.075,-0.49824 0.19322,-0.69028 0.35805,-0.25639 0.48762,-0.16576 0.48762,0.3411 0,0.75759 -0.22761,0.87432 -0.68084,0.34918 z M 73.149552,836.22612 c -0.833186,-0.52611 -1.04843,-0.89826 -0.856261,-1.48046 0.209616,-0.63504 0.534338,-0.78235 1.77022,-0.80311 2.691607,-0.0452 3.457518,1.07088 1.594817,2.32395 -1.227159,0.82554 -1.135095,0.82702 -2.508776,-0.0404 z m 192.396488,-0.0444 c -0.726,-0.55337 -0.93074,-0.98263 -0.73503,-1.54102 0.23915,-0.68231 0.49203,-0.768 2.13489,-0.72334 1.59734,0.0434 1.88443,0.1559 2.00925,0.78732 0.13216,0.6685 -1.35447,2.24408 -2.11739,2.24408 -0.15698,0 -0.73826,-0.34516 -1.29172,-0.76704 z M 78.405032,835.8332 c -0.503589,-0.43451 -0.436176,-0.44576 0.615207,-0.10273 0.980704,0.31997 1.441169,0.29633 2.717615,-0.13955 2.081339,-0.71072 2.744554,-0.66161 1.387563,0.10274 -1.332143,0.75035 -3.923675,0.82696 -4.720385,0.13954 z m 179.669338,-0.13954 c -1.31783,-0.73815 -0.41693,-0.83762 1.10765,-0.12229 1.01141,0.47453 1.66364,0.46559 4.00014,-0.0549 0.4516,-0.10061 0.32471,0.0321 -0.28793,0.30131 -1.50531,0.66125 -3.50991,0.60965 -4.81986,-0.12409 z m -87.11231,-1.60184 c -0.28877,-1.13987 -0.91859,-2.8916 -1.39959,-3.89273 -1.15983,-2.41398 -1.14716,-4.52683 0.0336,-5.60173 1.1516,-1.04836 2.78195,-1.0816 3.70256,-0.0755 1.18782,1.29813 1.23782,2.74432 0.18638,5.38993 -0.54373,1.36804 -1.21568,3.33451 -1.49325,4.36993 l -0.50469,1.88258 -0.52502,-2.07249 z m -102.830804,0.66415 c -0.153513,-0.17786 0.02244,-0.23046 0.412308,-0.12332 0.759089,0.20859 0.897978,0.4335 0.267702,0.4335 -0.226772,0 -0.532778,-0.13959 -0.68001,-0.31018 z m 13.938746,-1.65331 -0.07955,-1.64481 0.593855,0.99887 c 0.326629,0.54938 0.487316,1.29065 0.357081,1.64726 -0.413021,1.13098 -0.78916,0.69875 -0.871386,-1.00132 z m 85.248018,0.93204 c -0.39195,-0.38185 -2.06795,-1.18844 -3.72443,-1.79243 -2.52488,-0.92063 -3.03463,-1.24075 -3.153,-1.98 -0.47547,-2.96933 4.34677,-2.01906 6.67259,1.3149 1.77829,2.54909 1.90904,4.11777 0.20484,2.45753 z m 7.07584,0.0733 c -0.0139,-1.14656 2.02064,-3.90962 3.5633,-4.83913 2.27056,-1.36812 4.53068,-0.84079 4.23611,0.98837 -0.1168,0.72525 -0.67132,1.0831 -3.20839,2.07047 -1.68695,0.65652 -3.40785,1.50595 -3.82423,1.88761 l -0.75705,0.69393 -0.01,-0.80125 z m 84.11869,0.31208 c 0,-0.18275 0.19717,-0.24502 0.43817,-0.13836 0.24099,0.10666 0.43816,0.25618 0.43816,0.33228 0,0.0761 -0.19717,0.13837 -0.43816,0.13837 -0.241,0 -0.43817,-0.14953 -0.43817,-0.33229 z M 66.538664,833.88952 c -0.545024,-0.49765 -0.529523,-0.50874 0.165443,-0.11846 0.421735,0.23685 0.766787,0.48394 0.766787,0.54909 0,0.25824 -0.35982,0.092 -0.93223,-0.43063 z m 3.013535,0.019 c -0.421735,-0.0789 -0.766793,-0.33316 -0.766793,-0.56498 0,-0.23182 -0.24641,-0.4803 -0.547565,-0.55219 -0.344216,-0.0822 -0.05946,-0.43775 0.766792,-0.95753 2.099872,-1.32096 3.44546,-1.03893 3.44546,0.72217 0,1.45205 -0.677171,1.7681 -2.897894,1.35253 z m 6.841295,-0.10897 c -0.25438,-0.18216 -0.338538,-0.83784 -0.191272,-1.49037 0.333892,-1.47952 1.599126,-1.68736 3.375911,-0.55455 l 1.256912,0.80136 -1.229392,0.78441 c -1.301369,0.83033 -2.462105,0.99625 -3.212159,0.45915 z m 185.174996,-0.46771 -1.04033,-0.79298 1.1414,-0.81735 c 0.85962,-0.61555 1.41143,-0.7688 2.23517,-0.62076 0.93269,0.16763 1.08842,0.37012 1.05753,1.375 -0.0562,1.828 -1.60584,2.2189 -3.39377,0.85609 z m 7.64918,0.55284 c -0.25751,-0.12678 -0.4845,-0.7608 -0.50442,-1.40893 -0.0308,-0.99995 0.1268,-1.20772 1.04016,-1.37188 0.77458,-0.13921 1.37672,0.009 2.14754,0.52715 1.29766,0.87296 1.30437,0.94116 0.17776,1.8071 -0.90447,0.69519 -2.00666,0.86722 -2.86104,0.44656 z m -11.12936,-0.11605 c -0.008,-0.10962 0.27412,-0.6744 0.62616,-1.25506 0.47208,-0.77859 0.64461,-0.88616 0.65726,-0.40975 0.0149,0.56022 -1.24626,2.19614 -1.28342,1.66481 z m 16.34437,-0.41963 c 0,-0.26358 0.0822,-0.42041 0.18257,-0.34851 0.10042,0.0719 0.5605,-0.13989 1.02239,-0.47065 0.46191,-0.33075 1.06986,-0.60137 1.35103,-0.60137 0.28115,0 0.42806,0.0353 0.32643,0.0784 -0.10161,0.0432 -0.79172,0.4706 -1.53358,0.9499 -0.97068,0.62712 -1.34884,0.73709 -1.34884,0.3922 z M 65.27173,832.7057 c -0.463055,-0.39953 -0.435943,-0.44544 0.165428,-0.28019 0.395578,0.1087 0.719235,0.32372 0.719235,0.47783 0,0.40348 -0.253648,0.34682 -0.884663,-0.19764 z m 8.333531,-0.1497 c 0,-0.47258 0.228793,-0.64199 0.766793,-0.5678 0.421744,0.0582 0.766802,0.31368 0.766802,0.5678 0,0.25413 -0.345058,0.50963 -0.766802,0.5678 -0.538,0.0742 -0.766793,-0.0952 -0.766793,-0.5678 z m 192.575239,0.31377 c -0.36676,-0.42496 0.12814,-0.94129 0.9022,-0.94129 0.34727,0 0.63139,0.28239 0.63139,0.62752 0,0.64959 -1.05709,0.86586 -1.53359,0.31377 z M 84.19873,832.06878 c 0.198178,-0.68152 0.97581,-0.72323 1.153682,-0.0619 0.09236,0.34345 -0.122546,0.54909 -0.573841,0.54909 -0.420967,0 -0.662502,-0.20295 -0.579841,-0.48722 z m 171.4964,0.20902 c -0.29819,-0.34551 0.81835,-1.0487 1.2146,-0.76495 0.15857,0.11354 0.2883,0.3947 0.2883,0.6248 0,0.46741 -1.12953,0.57274 -1.5029,0.14015 z M 55.640334,831.21003 c -1.296574,-0.46804 -1.770018,-1.79166 -0.640849,-1.79166 0.510347,0 0.64766,0.16226 0.449789,0.53149 -0.251665,0.46963 -0.181691,0.46467 0.601242,-0.0427 0.804532,-0.52137 0.911369,-0.52697 1.161152,-0.0609 0.151314,0.28235 0.549765,0.51336 0.88548,0.51336 0.83699,0 0.772529,0.82959 -0.08272,1.0646 -0.937586,0.25764 -1.110043,0.24207 -2.374093,-0.21423 z m 227.519216,0.19689 c -0.55562,-0.16054 -0.78201,-1.04726 -0.26739,-1.04726 0.15417,0 0.51884,0.23359 0.81038,0.51908 0.44643,0.43719 0.49805,0.36294 0.32719,-0.47064 -0.23933,-1.16772 0.41052,-1.29525 1.44592,-0.28376 l 0.72267,0.70597 -0.28918,-0.70597 c -0.21297,-0.51992 -0.10819,-0.70597 0.3976,-0.70597 1.20118,0 0.77571,1.20601 -0.60597,1.71765 -1.35151,0.50046 -1.64022,0.53124 -2.54122,0.2709 z M 72.555092,831.07188 c -0.61805,-0.44257 -0.182583,-1.59907 0.867839,-2.3048 l 1.132176,-0.76066 1.058665,0.88035 c 1.173398,0.97576 1.339207,1.62343 0.510961,1.99596 -0.686633,0.30885 -3.215364,0.44284 -3.569641,0.18915 z M 265.0859,830.86226 c -0.73973,-0.52971 -0.49265,-1.29842 0.6684,-2.07948 l 1.10739,-0.74496 1.1414,0.81734 c 0.85962,0.61556 1.07364,1.0107 0.86689,1.60055 -0.23041,0.65739 -0.52119,0.77822 -1.80981,0.75206 -0.8444,-0.0171 -1.73283,-0.17262 -1.97427,-0.34551 z"
       id="path3358"
       inkscape:connector-curvature="0" />
  </g>
</svg>
